STARTFONT 2.3
FONT -FontForge-Monofett-Book-R-Normal--11-110-72-72-P-57-ISO10646-1
SIZE 11 72 72  2
FONTBOUNDINGBOX 7 13 0 -2
COMMENT "Generated by fontforge, http://fontforge.sourceforge.net"
COMMENT "Copyright (c) 2011 by vernon adams. All rights reserved."
STARTPROPERTIES 41
FOUNDRY "FontForge"
FAMILY_NAME "Monofett"
WEIGHT_NAME "Book"
SLANT "R"
SETWIDTH_NAME "Normal"
ADD_STYLE_NAME ""
PIXEL_SIZE 11
POINT_SIZE 110
RESOLUTION_X 72
RESOLUTION_Y 72
SPACING "P"
AVERAGE_WIDTH 57
CHARSET_REGISTRY "ISO10646"
CHARSET_ENCODING "1"
FONTNAME_REGISTRY ""
CHARSET_COLLECTIONS "ISO8859-2 ISO8859-9 ISO8859-4 ISO10646-1"
BITS_PER_PIXEL 2
FONT_NAME "Monofett"
FACE_NAME "Monofett"
COPYRIGHT "Copyright (c) 2011 by vernon adams. All rights reserved."
FONT_VERSION "1.000"
FONT_ASCENT 9
FONT_DESCENT 2
UNDERLINE_POSITION -1
UNDERLINE_THICKNESS 1
X_HEIGHT 7
CAP_HEIGHT 7
RAW_ASCENT 799
RAW_DESCENT 200
NORM_SPACE 2
RELATIVE_WEIGHT 40
RELATIVE_SETWIDTH 50
SUPERSCRIPT_X 0
SUPERSCRIPT_Y 5
SUPERSCRIPT_SIZE 7
SUBSCRIPT_X 0
SUBSCRIPT_Y 1
SUBSCRIPT_SIZE 7
FIGURE_WIDTH 6
AVG_LOWERCASE_WIDTH 60
AVG_UPPERCASE_WIDTH 60
ENDPROPERTIES
CHARS 409
STARTCHAR uni000D
ENCODING 13
SWIDTH 144 0
DWIDTH 2 0
BBX 1 1 0 0
BITMAP
00
ENDCHAR
STARTCHAR space
ENCODING 32
SWIDTH 144 0
DWIDTH 2 0
BBX 1 1 0 0
BITMAP
00
ENDCHAR
STARTCHAR exclam
ENCODING 33
SWIDTH 424 0
DWIDTH 5 0
BBX 5 8 0 0
BITMAP
1400
B740
F780
FB80
FB80
FB80
FF80
7E00
ENDCHAR
STARTCHAR quotedbl
ENCODING 34
SWIDTH 424 0
DWIDTH 5 0
BBX 5 8 0 0
BITMAP
1400
A740
FB80
FF80
FF80
FF80
FF80
7E00
ENDCHAR
STARTCHAR numbersign
ENCODING 35
SWIDTH 482 0
DWIDTH 5 0
BBX 6 8 0 0
BITMAP
1500
BA80
E5D0
F6D0
E5D0
FBD0
FFD0
7F40
ENDCHAR
STARTCHAR dollar
ENCODING 36
SWIDTH 578 0
DWIDTH 6 0
BBX 7 8 0 0
BITMAP
1540
B9A0
E9B4
F5B4
FE74
F5B4
FFF4
7FE0
ENDCHAR
STARTCHAR percent
ENCODING 37
SWIDTH 578 0
DWIDTH 6 0
BBX 7 8 0 0
BITMAP
1540
AAE0
D5F4
F9B4
FA54
FFB4
FFF4
7FE0
ENDCHAR
STARTCHAR ampersand
ENCODING 38
SWIDTH 578 0
DWIDTH 6 0
BBX 7 8 0 0
BITMAP
1540
B5A0
F7B4
F574
F774
F9B4
FFF4
7FE0
ENDCHAR
STARTCHAR quotesingle
ENCODING 39
SWIDTH 424 0
DWIDTH 5 0
BBX 5 8 0 0
BITMAP
1400
BB40
FB80
FF80
FF80
FF80
FF80
7E00
ENDCHAR
STARTCHAR parenleft
ENCODING 40
SWIDTH 483 0
DWIDTH 5 0
BBX 6 8 0 0
BITMAP
1500
B680
EBD0
EBD0
EBD0
E7D0
FBD0
7F40
ENDCHAR
STARTCHAR parenright
ENCODING 41
SWIDTH 483 0
DWIDTH 5 0
BBX 6 8 0 0
BITMAP
1500
B680
FDD0
FDD0
FDD0
F9D0
FBD0
7F40
ENDCHAR
STARTCHAR asterisk
ENCODING 42
SWIDTH 428 0
DWIDTH 5 0
BBX 5 8 0 0
BITMAP
1400
B640
E180
FA80
FF80
FF80
FF80
7E00
ENDCHAR
STARTCHAR plus
ENCODING 43
SWIDTH 428 0
DWIDTH 5 0
BBX 5 8 0 0
BITMAP
1400
B740
D680
FB80
FF80
FF80
FF80
7E00
ENDCHAR
STARTCHAR comma
ENCODING 44
SWIDTH 428 0
DWIDTH 5 0
BBX 5 8 0 0
BITMAP
1400
BF40
FF80
FF80
FF80
F780
FF80
7E00
ENDCHAR
STARTCHAR hyphen
ENCODING 45
SWIDTH 428 0
DWIDTH 5 0
BBX 5 8 0 0
BITMAP
1400
BF40
E680
FF80
FF80
FF80
FF80
7E00
ENDCHAR
STARTCHAR period
ENCODING 46
SWIDTH 428 0
DWIDTH 5 0
BBX 5 8 0 0
BITMAP
1400
BF40
FF80
FF80
FF80
FB80
FF80
7E00
ENDCHAR
STARTCHAR slash
ENCODING 47
SWIDTH 428 0
DWIDTH 5 0
BBX 5 8 0 0
BITMAP
1400
BB40
F780
F780
FB80
EB80
FF80
7E00
ENDCHAR
STARTCHAR zero
ENCODING 48
SWIDTH 578 0
DWIDTH 6 0
BBX 7 8 0 0
BITMAP
1540
B560
EBB4
EBB4
EB74
F5B4
FFF4
7FE0
ENDCHAR
STARTCHAR one
ENCODING 49
SWIDTH 578 0
DWIDTH 6 0
BBX 7 8 0 0
BITMAP
1540
B9E0
FDF4
FDF4
FDF4
FEF4
FFF4
7FE0
ENDCHAR
STARTCHAR two
ENCODING 50
SWIDTH 578 0
DWIDTH 6 0
BBX 7 8 0 0
BITMAP
1540
B560
FF74
F5B4
EBF4
F5B4
FFF4
7FE0
ENDCHAR
STARTCHAR three
ENCODING 51
SWIDTH 578 0
DWIDTH 6 0
BBX 7 8 0 0
BITMAP
1540
A560
FF74
F974
EF74
F5B4
FFF4
7FE0
ENDCHAR
STARTCHAR four
ENCODING 52
SWIDTH 578 0
DWIDTH 6 0
BBX 7 8 0 0
BITMAP
1540
BBA0
F6B4
F6B4
F974
FFB4
FFF4
7FE0
ENDCHAR
STARTCHAR five
ENCODING 53
SWIDTH 578 0
DWIDTH 6 0
BBX 7 8 0 0
BITMAP
1540
B5A0
EBF4
FA74
FF74
F5B4
FFF4
7FE0
ENDCHAR
STARTCHAR six
ENCODING 54
SWIDTH 578 0
DWIDTH 6 0
BBX 7 8 0 0
BITMAP
1540
B5A0
EBF4
E674
EBB4
F5B4
FFF4
7FE0
ENDCHAR
STARTCHAR seven
ENCODING 55
SWIDTH 578 0
DWIDTH 6 0
BBX 7 8 0 0
BITMAP
1540
B9A0
FEB4
FDF4
FDF4
FBF4
FFF4
7FE0
ENDCHAR
STARTCHAR eight
ENCODING 56
SWIDTH 578 0
DWIDTH 6 0
BBX 7 8 0 0
BITMAP
1540
B560
EB74
E574
EB74
F5B4
FFF4
7FE0
ENDCHAR
STARTCHAR nine
ENCODING 57
SWIDTH 578 0
DWIDTH 6 0
BBX 7 8 0 0
BITMAP
1540
A560
EB74
E574
FF74
F5B4
FFF4
7FE0
ENDCHAR
STARTCHAR colon
ENCODING 58
SWIDTH 428 0
DWIDTH 5 0
BBX 5 8 0 0
BITMAP
1400
BF40
FF80
FB80
FF80
FB80
FF80
7E00
ENDCHAR
STARTCHAR semicolon
ENCODING 59
SWIDTH 428 0
DWIDTH 5 0
BBX 5 8 0 0
BITMAP
1400
BF40
FF80
FB80
FF80
F780
FF80
7E00
ENDCHAR
STARTCHAR less
ENCODING 60
SWIDTH 482 0
DWIDTH 5 0
BBX 6 9 0 0
BITMAP
1500
7F80
FFD0
FBD0
EFD0
FBD0
FED0
BFC0
1500
ENDCHAR
STARTCHAR equal
ENCODING 61
SWIDTH 482 0
DWIDTH 5 0
BBX 6 9 0 0
BITMAP
0500
7F80
FFD0
FBD0
FAD0
FAD0
FFD0
BFC0
1500
ENDCHAR
STARTCHAR greater
ENCODING 62
SWIDTH 482 0
DWIDTH 5 0
BBX 6 9 0 0
BITMAP
0500
7F80
FFD0
FBD0
FED0
FAD0
FBD0
BFC0
1500
ENDCHAR
STARTCHAR question
ENCODING 63
SWIDTH 578 0
DWIDTH 6 0
BBX 7 8 0 0
BITMAP
1540
B6A0
FFB4
FEB4
FEF4
FEF4
FFF4
7FE0
ENDCHAR
STARTCHAR at
ENCODING 64
SWIDTH 578 0
DWIDTH 6 0
BBX 7 8 0 0
BITMAP
1540
A660
EAA4
EAA4
E6A4
DBB4
FFF4
7FE0
ENDCHAR
STARTCHAR A
ENCODING 65
SWIDTH 578 0
DWIDTH 6 0
BBX 7 8 0 0
BITMAP
1540
B5A0
F774
E574
EB74
EFB4
FFF4
7FE0
ENDCHAR
STARTCHAR B
ENCODING 66
SWIDTH 578 0
DWIDTH 6 0
BBX 7 8 0 0
BITMAP
1540
A560
EB74
E574
EB74
E5B4
FFF4
7FE0
ENDCHAR
STARTCHAR C
ENCODING 67
SWIDTH 578 0
DWIDTH 6 0
BBX 7 8 0 0
BITMAP
1540
B5A0
EBF4
EBF4
EBF4
F5B4
FFF4
7FE0
ENDCHAR
STARTCHAR D
ENCODING 68
SWIDTH 578 0
DWIDTH 6 0
BBX 7 8 0 0
BITMAP
1540
A560
EBB4
EBB4
EBB4
F5B4
FFF4
7FE0
ENDCHAR
STARTCHAR E
ENCODING 69
SWIDTH 578 0
DWIDTH 6 0
BBX 7 8 0 0
BITMAP
1540
B5A0
F7F4
F5B4
F7F4
F9B4
FFF4
7FE0
ENDCHAR
STARTCHAR F
ENCODING 70
SWIDTH 578 0
DWIDTH 6 0
BBX 7 8 0 0
BITMAP
1540
B5A0
F7F4
F5B4
F7F4
FBF4
FFF4
7FE0
ENDCHAR
STARTCHAR G
ENCODING 71
SWIDTH 578 0
DWIDTH 6 0
BBX 7 8 0 0
BITMAP
1540
B5A0
FBF4
FA74
FBB4
F9B4
FFF4
7FE0
ENDCHAR
STARTCHAR H
ENCODING 72
SWIDTH 578 0
DWIDTH 6 0
BBX 7 8 0 0
BITMAP
1540
ABA0
EBB4
E574
EBB4
FBB4
FFF4
7FE0
ENDCHAR
STARTCHAR I
ENCODING 73
SWIDTH 578 0
DWIDTH 6 0
BBX 7 8 0 0
BITMAP
1540
B560
FDF4
FDF4
FDF4
F574
FFF4
7FE0
ENDCHAR
STARTCHAR J
ENCODING 74
SWIDTH 578 0
DWIDTH 6 0
BBX 7 8 0 0
BITMAP
1540
BEA0
FEB4
FEB4
FEB4
F9F4
FFF4
7FE0
ENDCHAR
STARTCHAR K
ENCODING 75
SWIDTH 578 0
DWIDTH 6 0
BBX 7 8 0 0
BITMAP
1540
B760
F5B4
F5F4
F674
FBB4
FFF4
7FE0
ENDCHAR
STARTCHAR L
ENCODING 76
SWIDTH 578 0
DWIDTH 6 0
BBX 7 8 0 0
BITMAP
1540
B7E0
F7F4
F7F4
F7F4
F9B4
FFF4
7FE0
ENDCHAR
STARTCHAR M
ENCODING 77
SWIDTH 578 0
DWIDTH 6 0
BBX 7 8 0 0
BITMAP
1540
A560
DDA4
DDA4
DFA4
EFE4
FFF4
7FE0
ENDCHAR
STARTCHAR N
ENCODING 78
SWIDTH 578 0
DWIDTH 6 0
BBX 7 8 0 0
BITMAP
1540
A560
EB74
EB74
EB74
FFB4
FFF4
7FE0
ENDCHAR
STARTCHAR O
ENCODING 79
SWIDTH 578 0
DWIDTH 6 0
BBX 7 8 0 0
BITMAP
1540
B560
EBB4
EBB4
EBB4
F5B4
FFF4
7FE0
ENDCHAR
STARTCHAR P
ENCODING 80
SWIDTH 578 0
DWIDTH 6 0
BBX 7 8 0 0
BITMAP
1540
B560
F774
F574
F7F4
FBF4
FFF4
7FE0
ENDCHAR
STARTCHAR Q
ENCODING 81
SWIDTH 578 0
DWIDTH 6 0
BBX 7 8 0 0
BITMAP
1540
B560
EBB4
EBB4
EAB4
F574
FFF4
7FE0
ENDCHAR
STARTCHAR R
ENCODING 82
SWIDTH 578 0
DWIDTH 6 0
BBX 7 8 0 0
BITMAP
1540
B5A0
FB74
F5B4
FB74
FBB4
FFF4
7FE0
ENDCHAR
STARTCHAR S
ENCODING 83
SWIDTH 578 0
DWIDTH 6 0
BBX 7 8 0 0
BITMAP
1540
B5A0
FBF4
F574
FF74
F9B4
FFF4
7FE0
ENDCHAR
STARTCHAR T
ENCODING 84
SWIDTH 578 0
DWIDTH 6 0
BBX 7 8 0 0
BITMAP
1540
B560
FDF4
FDF4
FDF4
FEF4
FFF4
7FE0
ENDCHAR
STARTCHAR U
ENCODING 85
SWIDTH 578 0
DWIDTH 6 0
BBX 7 8 0 0
BITMAP
1540
ABA0
EBB4
EBB4
EB74
F5B4
FFF4
7FE0
ENDCHAR
STARTCHAR V
ENCODING 86
SWIDTH 578 0
DWIDTH 6 0
BBX 7 8 0 0
BITMAP
1540
AB60
F774
F774
F9B4
FDF4
FFF4
7FE0
ENDCHAR
STARTCHAR W
ENCODING 87
SWIDTH 578 0
DWIDTH 6 0
BBX 7 8 0 0
BITMAP
1540
9E90
DDA4
D9A4
E674
FBB4
FFF4
7FE0
ENDCHAR
STARTCHAR X
ENCODING 88
SWIDTH 578 0
DWIDTH 6 0
BBX 7 8 0 0
BITMAP
1540
BBA0
F6B4
F8F4
F774
FBB4
FFF4
7FE0
ENDCHAR
STARTCHAR Y
ENCODING 89
SWIDTH 578 0
DWIDTH 6 0
BBX 7 8 0 0
BITMAP
1540
B760
F6B4
F8F4
FDF4
FEF4
FFF4
7FE0
ENDCHAR
STARTCHAR Z
ENCODING 90
SWIDTH 578 0
DWIDTH 6 0
BBX 7 8 0 0
BITMAP
1540
B5A0
FDF4
FDF4
F7F4
F9B4
FFF4
7FE0
ENDCHAR
STARTCHAR bracketleft
ENCODING 91
SWIDTH 484 0
DWIDTH 5 0
BBX 6 8 0 0
BITMAP
1500
B780
F7D0
F7D0
F7D0
F7D0
FFD0
7F40
ENDCHAR
STARTCHAR backslash
ENCODING 92
SWIDTH 516 0
DWIDTH 6 0
BBX 6 8 0 0
BITMAP
1500
B7D0
FBE0
FAE0
FEE0
FEE0
FFE0
7F80
ENDCHAR
STARTCHAR bracketright
ENCODING 93
SWIDTH 484 0
DWIDTH 5 0
BBX 6 8 0 0
BITMAP
1500
B780
FBD0
FBD0
FBD0
F7D0
FFD0
7F40
ENDCHAR
STARTCHAR asciicircum
ENCODING 94
SWIDTH 355 0
DWIDTH 4 0
BBX 4 5 0 2
BITMAP
14
7D
AA
FF
54
ENDCHAR
STARTCHAR underscore
ENCODING 95
SWIDTH 428 0
DWIDTH 5 0
BBX 5 8 0 0
BITMAP
1400
BF40
FF80
FF80
FF80
EA80
FF80
7E00
ENDCHAR
STARTCHAR grave
ENCODING 96
SWIDTH 308 0
DWIDTH 3 0
BBX 4 4 0 0
BITMAP
64
EC
A9
2D
ENDCHAR
STARTCHAR a
ENCODING 97
SWIDTH 578 0
DWIDTH 6 0
BBX 7 8 0 0
BITMAP
1540
B5A0
FF74
E574
EB74
F5B4
FFF4
7FE0
ENDCHAR
STARTCHAR b
ENCODING 98
SWIDTH 578 0
DWIDTH 6 0
BBX 7 8 0 0
BITMAP
1540
A560
EB74
E574
EB74
E5B4
FFF4
7FE0
ENDCHAR
STARTCHAR c
ENCODING 99
SWIDTH 578 0
DWIDTH 6 0
BBX 7 8 0 0
BITMAP
1540
B5A0
EBF4
EBF4
EBF4
F5B4
FFF4
7FE0
ENDCHAR
STARTCHAR d
ENCODING 100
SWIDTH 578 0
DWIDTH 6 0
BBX 7 8 0 0
BITMAP
1540
A560
EBB4
EBB4
EBB4
F5B4
FFF4
7FE0
ENDCHAR
STARTCHAR e
ENCODING 101
SWIDTH 578 0
DWIDTH 6 0
BBX 7 8 0 0
BITMAP
1540
A5A0
EA74
EAB4
EAF4
FAB4
FFF4
7FE0
ENDCHAR
STARTCHAR f
ENCODING 102
SWIDTH 578 0
DWIDTH 6 0
BBX 7 8 0 0
BITMAP
1540
B5A0
F7F4
F5B4
F7F4
FBF4
FFF4
7FE0
ENDCHAR
STARTCHAR g
ENCODING 103
SWIDTH 578 0
DWIDTH 6 0
BBX 7 8 0 0
BITMAP
1540
B5A0
FBF4
FA74
FBB4
F9B4
FFF4
7FE0
ENDCHAR
STARTCHAR h
ENCODING 104
SWIDTH 578 0
DWIDTH 6 0
BBX 7 8 0 0
BITMAP
1540
ABA0
EBB4
E574
EBB4
FBB4
FFF4
7FE0
ENDCHAR
STARTCHAR i
ENCODING 105
SWIDTH 578 0
DWIDTH 6 0
BBX 7 8 0 0
BITMAP
1540
B560
FDF4
FDF4
FDF4
F574
FFF4
7FE0
ENDCHAR
STARTCHAR j
ENCODING 106
SWIDTH 578 0
DWIDTH 6 0
BBX 7 8 0 0
BITMAP
1540
BEA0
FEB4
FEB4
FEB4
F9F4
FFF4
7FE0
ENDCHAR
STARTCHAR k
ENCODING 107
SWIDTH 578 0
DWIDTH 6 0
BBX 7 8 0 0
BITMAP
1540
B760
F5B4
F5F4
F674
FBB4
FFF4
7FE0
ENDCHAR
STARTCHAR l
ENCODING 108
SWIDTH 578 0
DWIDTH 6 0
BBX 7 8 0 0
BITMAP
1540
B7E0
F7F4
F7F4
F7F4
F9B4
FFF4
7FE0
ENDCHAR
STARTCHAR m
ENCODING 109
SWIDTH 578 0
DWIDTH 6 0
BBX 7 8 0 0
BITMAP
1540
A560
DDA4
DDA4
DFA4
EFE4
FFF4
7FE0
ENDCHAR
STARTCHAR n
ENCODING 110
SWIDTH 578 0
DWIDTH 6 0
BBX 7 8 0 0
BITMAP
1540
A560
EB74
EB74
EB74
FFB4
FFF4
7FE0
ENDCHAR
STARTCHAR o
ENCODING 111
SWIDTH 578 0
DWIDTH 6 0
BBX 7 8 0 0
BITMAP
1540
B560
EBB4
EBB4
EBB4
F5B4
FFF4
7FE0
ENDCHAR
STARTCHAR p
ENCODING 112
SWIDTH 578 0
DWIDTH 6 0
BBX 7 8 0 0
BITMAP
1540
B560
F774
F574
F7F4
FBF4
FFF4
7FE0
ENDCHAR
STARTCHAR q
ENCODING 113
SWIDTH 578 0
DWIDTH 6 0
BBX 7 8 0 0
BITMAP
1540
B560
EBB4
EBB4
EAB4
F574
FFF4
7FE0
ENDCHAR
STARTCHAR r
ENCODING 114
SWIDTH 578 0
DWIDTH 6 0
BBX 7 8 0 0
BITMAP
1540
B5A0
FB74
F5B4
FB74
FBB4
FFF4
7FE0
ENDCHAR
STARTCHAR s
ENCODING 115
SWIDTH 578 0
DWIDTH 6 0
BBX 7 8 0 0
BITMAP
1540
B5A0
FBF4
F574
FF74
F9B4
FFF4
7FE0
ENDCHAR
STARTCHAR t
ENCODING 116
SWIDTH 578 0
DWIDTH 6 0
BBX 7 8 0 0
BITMAP
1540
B560
FDF4
FDF4
FDF4
FEF4
FFF4
7FE0
ENDCHAR
STARTCHAR u
ENCODING 117
SWIDTH 578 0
DWIDTH 6 0
BBX 7 8 0 0
BITMAP
1540
ABA0
EBB4
EBB4
EB74
F5B4
FFF4
7FE0
ENDCHAR
STARTCHAR v
ENCODING 118
SWIDTH 578 0
DWIDTH 6 0
BBX 7 8 0 0
BITMAP
1540
AB60
F774
F774
F9B4
FDF4
FFF4
7FE0
ENDCHAR
STARTCHAR w
ENCODING 119
SWIDTH 578 0
DWIDTH 6 0
BBX 7 8 0 0
BITMAP
1540
9E90
DDA4
D9A4
E674
FBB4
FFF4
7FE0
ENDCHAR
STARTCHAR x
ENCODING 120
SWIDTH 578 0
DWIDTH 6 0
BBX 7 8 0 0
BITMAP
1540
BBA0
F6B4
F8F4
F774
FBB4
FFF4
7FE0
ENDCHAR
STARTCHAR y
ENCODING 121
SWIDTH 578 0
DWIDTH 6 0
BBX 7 8 0 0
BITMAP
1540
B760
F6B4
F8F4
FDF4
FEF4
FFF4
7FE0
ENDCHAR
STARTCHAR z
ENCODING 122
SWIDTH 578 0
DWIDTH 6 0
BBX 7 8 0 0
BITMAP
1540
B5A0
FDF4
FDF4
F7F4
F9B4
FFF4
7FE0
ENDCHAR
STARTCHAR braceleft
ENCODING 123
SWIDTH 484 0
DWIDTH 5 0
BBX 6 8 0 0
BITMAP
1500
B680
FBD0
DBD0
F7D0
F6D0
FFD0
7F40
ENDCHAR
STARTCHAR bar
ENCODING 124
SWIDTH 484 0
DWIDTH 5 0
BBX 6 8 0 0
BITMAP
1500
BB80
FBD0
FBD0
FBD0
FBD0
FFD0
7F40
ENDCHAR
STARTCHAR braceright
ENCODING 125
SWIDTH 484 0
DWIDTH 5 0
BBX 6 8 0 0
BITMAP
1500
B680
FED0
FD90
FAD0
F6D0
FFD0
7F40
ENDCHAR
STARTCHAR asciitilde
ENCODING 126
SWIDTH 578 0
DWIDTH 6 0
BBX 7 8 0 0
BITMAP
1540
BFE0
F6B4
FEB4
FFF4
FFF4
FFF4
7FE0
ENDCHAR
STARTCHAR uni00A0
ENCODING 160
SWIDTH 151 0
DWIDTH 2 0
BBX 1 1 0 0
BITMAP
00
ENDCHAR
STARTCHAR exclamdown
ENCODING 161
SWIDTH 424 0
DWIDTH 5 0
BBX 5 8 0 0
BITMAP
1400
BB40
FB80
FB80
FB80
FB80
FF80
7E00
ENDCHAR
STARTCHAR cent
ENCODING 162
SWIDTH 578 0
DWIDTH 6 0
BBX 7 8 0 0
BITMAP
1540
B9E0
F5F4
F6F4
F5F4
F9F4
FFF4
7FE0
ENDCHAR
STARTCHAR sterling
ENCODING 163
SWIDTH 578 0
DWIDTH 6 0
BBX 7 8 0 0
BITMAP
1540
B9A0
F7B4
F6F4
F7F4
F9B4
FFF4
7FE0
ENDCHAR
STARTCHAR currency
ENCODING 164
SWIDTH 578 0
DWIDTH 6 0
BBX 7 8 0 0
BITMAP
1540
B6A0
FB74
F774
FAB4
FFF4
FFF4
7FE0
ENDCHAR
STARTCHAR yen
ENCODING 165
SWIDTH 578 0
DWIDTH 6 0
BBX 7 8 0 0
BITMAP
1540
AB60
F6B4
F9F4
F4B4
FEF4
FFF4
7FE0
ENDCHAR
STARTCHAR brokenbar
ENCODING 166
SWIDTH 484 0
DWIDTH 5 0
BBX 6 8 0 0
BITMAP
1500
B780
F7D0
FBD0
F7D0
FBD0
FFD0
7F40
ENDCHAR
STARTCHAR section
ENCODING 167
SWIDTH 578 0
DWIDTH 6 0
BBX 7 8 0 0
BITMAP
1540
B6A0
F6F4
FAB4
FAB4
FAB4
FFF4
7FE0
ENDCHAR
STARTCHAR dieresis
ENCODING 168
SWIDTH 388 0
DWIDTH 4 0
BBX 5 3 0 0
BITMAP
BE00
EB40
AA00
ENDCHAR
STARTCHAR copyright
ENCODING 169
SWIDTH 578 0
DWIDTH 6 0
BBX 7 8 0 0
BITMAP
1540
BAA0
EAE4
ABE4
EAE4
EAB4
FFF4
7FE0
ENDCHAR
STARTCHAR ordfeminine
ENCODING 170
SWIDTH 578 0
DWIDTH 6 0
BBX 7 8 0 0
BITMAP
1540
B9A0
FE74
F674
F5B4
FFF4
FFF4
7FE0
ENDCHAR
STARTCHAR guillemotleft
ENCODING 171
SWIDTH 578 0
DWIDTH 6 0
BBX 7 8 0 0
BITMAP
1540
BFE0
FAF4
EAF4
FAF4
FBB4
FFF4
7FE0
ENDCHAR
STARTCHAR uni00AD
ENCODING 173
SWIDTH 428 0
DWIDTH 5 0
BBX 5 8 0 0
BITMAP
1400
BF40
E680
FF80
FF80
FF80
FF80
7E00
ENDCHAR
STARTCHAR registered
ENCODING 174
SWIDTH 578 0
DWIDTH 6 0
BBX 7 8 0 0
BITMAP
1540
BAA0
E6A4
A6A4
EBA4
EAB4
FFF4
7FE0
ENDCHAR
STARTCHAR macron
ENCODING 175
SWIDTH 428 0
DWIDTH 5 0
BBX 5 4 0 0
BITMAP
0400
BF40
E780
BF40
ENDCHAR
STARTCHAR degree
ENCODING 176
SWIDTH 428 0
DWIDTH 5 0
BBX 5 8 0 0
BITMAP
1400
A640
E680
FF80
FF80
FF80
FF80
7E00
ENDCHAR
STARTCHAR plusminus
ENCODING 177
SWIDTH 428 0
DWIDTH 5 0
BBX 5 8 0 0
BITMAP
1400
B740
D680
FB80
E680
FF80
FF80
7E00
ENDCHAR
STARTCHAR uni00B2
ENCODING 178
SWIDTH 578 0
DWIDTH 6 0
BBX 7 8 0 0
BITMAP
1540
B5A0
F9B4
F5F4
FFF4
FFF4
FFF4
7FE0
ENDCHAR
STARTCHAR uni00B3
ENCODING 179
SWIDTH 578 0
DWIDTH 6 0
BBX 7 8 0 0
BITMAP
1540
B9A0
FE74
F574
FFF4
FFF4
FFF4
7FE0
ENDCHAR
STARTCHAR acute
ENCODING 180
SWIDTH 308 0
DWIDTH 3 0
BBX 4 4 0 0
BITMAP
68
AD
EC
B4
ENDCHAR
STARTCHAR uni00B5
ENCODING 181
SWIDTH 578 0
DWIDTH 6 0
BBX 7 8 0 0
BITMAP
1540
AFA0
EF74
EF74
EF74
E5B4
FFF4
7FE0
ENDCHAR
STARTCHAR paragraph
ENCODING 182
SWIDTH 578 0
DWIDTH 6 0
BBX 7 8 0 0
BITMAP
1540
B5A0
E1B4
F9B4
FEB4
FFF4
FFF4
7FE0
ENDCHAR
STARTCHAR periodcentered
ENCODING 183
SWIDTH 428 0
DWIDTH 5 0
BBX 5 8 0 0
BITMAP
1400
BF40
FB80
FF80
FF80
FF80
FF80
7E00
ENDCHAR
STARTCHAR cedilla
ENCODING 184
SWIDTH 101 0
DWIDTH 1 0
BBX 1 2 0 -2
BITMAP
80
40
ENDCHAR
STARTCHAR uni00B9
ENCODING 185
SWIDTH 578 0
DWIDTH 6 0
BBX 7 8 0 0
BITMAP
1540
B9E0
FDF4
FDF4
FFF4
FFF4
FFF4
7FE0
ENDCHAR
STARTCHAR ordmasculine
ENCODING 186
SWIDTH 578 0
DWIDTH 6 0
BBX 7 8 0 0
BITMAP
1540
B560
F774
F774
F574
FFF4
FFF4
7FE0
ENDCHAR
STARTCHAR guillemotright
ENCODING 187
SWIDTH 578 0
DWIDTH 6 0
BBX 7 8 0 0
BITMAP
1540
BFE0
FAF4
FEB4
FAB4
FAF4
FFF4
7FE0
ENDCHAR
STARTCHAR onequarter
ENCODING 188
SWIDTH 578 0
DWIDTH 6 0
BBX 7 8 0 0
BITMAP
1540
5EE0
EAF4
E5A4
F594
FB94
FFF4
7FE0
ENDCHAR
STARTCHAR onehalf
ENCODING 189
SWIDTH 578 0
DWIDTH 6 0
BBX 7 8 0 0
BITMAP
1540
5EE0
EAB4
E694
F6B4
FA64
FFF4
7FE0
ENDCHAR
STARTCHAR threequarters
ENCODING 190
SWIDTH 578 0
DWIDTH 6 0
BBX 7 8 0 0
BITMAP
1540
5EE0
EAA4
E694
F694
FA64
FFF4
7FE0
ENDCHAR
STARTCHAR questiondown
ENCODING 191
SWIDTH 578 0
DWIDTH 6 0
BBX 7 8 0 0
BITMAP
1540
BEE0
FDF4
F6F4
FBB4
FAB4
FFF4
7FE0
ENDCHAR
STARTCHAR Agrave
ENCODING 192
SWIDTH 578 0
DWIDTH 6 0
BBX 7 11 0 0
BITMAP
1900
3B00
2A40
1F40
B5A0
F774
E574
EB74
EFB4
FFF4
7FE0
ENDCHAR
STARTCHAR Aacute
ENCODING 193
SWIDTH 578 0
DWIDTH 6 0
BBX 7 11 0 0
BITMAP
0680
0AD0
0EC0
1F80
B5A0
F774
E574
EB74
EFB4
FFF4
7FE0
ENDCHAR
STARTCHAR Acircumflex
ENCODING 194
SWIDTH 578 0
DWIDTH 6 0
BBX 7 11 0 0
BITMAP
0B40
1D80
2AD0
2FC0
B5A0
F774
E574
EB74
EFB4
FFF4
7FE0
ENDCHAR
STARTCHAR Atilde
ENCODING 195
SWIDTH 578 0
DWIDTH 6 0
BBX 7 11 0 0
BITMAP
0540
2FD0
3AA0
3FD0
B5A0
F774
E574
EB74
EFB4
FFF4
7FE0
ENDCHAR
STARTCHAR Adieresis
ENCODING 196
SWIDTH 578 0
DWIDTH 6 0
BBX 7 10 0 0
BITMAP
1FC0
2A90
2FC0
B5A0
F774
E574
EB74
EFB4
FFF4
7FE0
ENDCHAR
STARTCHAR Aring
ENCODING 197
SWIDTH 578 0
DWIDTH 6 0
BBX 7 11 0 0
BITMAP
0500
1AC0
2A90
2FC0
B5A0
F774
E574
EB74
EFB4
FFF4
7FE0
ENDCHAR
STARTCHAR AE
ENCODING 198
SWIDTH 578 0
DWIDTH 6 0
BBX 7 8 0 0
BITMAP
1540
B560
E9F4
ED74
D5F4
EE74
FFF4
7FE0
ENDCHAR
STARTCHAR Ccedilla
ENCODING 199
SWIDTH 578 0
DWIDTH 6 0
BBX 7 8 0 0
BITMAP
1540
B5A0
EBF4
EBF4
EBF4
F5B4
F6F4
7FE0
ENDCHAR
STARTCHAR Egrave
ENCODING 200
SWIDTH 578 0
DWIDTH 6 0
BBX 7 11 0 0
BITMAP
1900
2B40
1E40
1F80
B5A0
F7F4
F5B4
F7F4
F9B4
FFF4
7FE0
ENDCHAR
STARTCHAR Eacute
ENCODING 201
SWIDTH 578 0
DWIDTH 6 0
BBX 7 11 0 0
BITMAP
0280
0AD0
0EC0
1F80
B5A0
F7F4
F5B4
F7F4
F9B4
FFF4
7FE0
ENDCHAR
STARTCHAR Ecircumflex
ENCODING 202
SWIDTH 578 0
DWIDTH 6 0
BBX 7 11 0 0
BITMAP
0740
0DC0
1A90
2FD0
B5A0
F7F4
F5B4
F7F4
F9B4
FFF4
7FE0
ENDCHAR
STARTCHAR Edieresis
ENCODING 203
SWIDTH 578 0
DWIDTH 6 0
BBX 7 10 0 0
BITMAP
1FD0
2AA0
1FD0
B5A0
F7F4
F5B4
F7F4
F9B4
FFF4
7FE0
ENDCHAR
STARTCHAR Igrave
ENCODING 204
SWIDTH 578 0
DWIDTH 6 0
BBX 7 11 0 0
BITMAP
1A00
2B40
1E40
1F80
B560
FDF4
FDF4
FDF4
F574
FFF4
7FE0
ENDCHAR
STARTCHAR Iacute
ENCODING 205
SWIDTH 578 0
DWIDTH 6 0
BBX 7 11 0 0
BITMAP
0280
0AD0
0AC0
1F80
B560
FDF4
FDF4
FDF4
F574
FFF4
7FE0
ENDCHAR
STARTCHAR Icircumflex
ENCODING 206
SWIDTH 578 0
DWIDTH 6 0
BBX 7 11 0 0
BITMAP
0740
0DC0
1A90
1FD0
B560
FDF4
FDF4
FDF4
F574
FFF4
7FE0
ENDCHAR
STARTCHAR Idieresis
ENCODING 207
SWIDTH 578 0
DWIDTH 6 0
BBX 7 10 0 0
BITMAP
1FD0
2AA0
1FD0
B560
FDF4
FDF4
FDF4
F574
FFF4
7FE0
ENDCHAR
STARTCHAR Eth
ENCODING 208
SWIDTH 578 0
DWIDTH 6 0
BBX 7 8 0 0
BITMAP
1540
A560
EBB4
EBB4
EBB4
F5B4
FFF4
7FE0
ENDCHAR
STARTCHAR Ntilde
ENCODING 209
SWIDTH 578 0
DWIDTH 6 0
BBX 7 11 0 0
BITMAP
0540
2FD0
3AA0
3FD0
A560
EB74
EB74
EB74
FFB4
FFF4
7FE0
ENDCHAR
STARTCHAR Ograve
ENCODING 210
SWIDTH 578 0
DWIDTH 6 0
BBX 7 11 0 0
BITMAP
1900
3B00
1A40
1F80
B560
EBB4
EBB4
EBB4
F5B4
FFF4
7FE0
ENDCHAR
STARTCHAR Oacute
ENCODING 211
SWIDTH 578 0
DWIDTH 6 0
BBX 7 11 0 0
BITMAP
0280
0AD0
0EC0
1F80
B560
EBB4
EBB4
EBB4
F5B4
FFF4
7FE0
ENDCHAR
STARTCHAR Ocircumflex
ENCODING 212
SWIDTH 578 0
DWIDTH 6 0
BBX 7 11 0 0
BITMAP
0B40
0DC0
1AD0
2FD0
B560
EBB4
EBB4
EBB4
F5B4
FFF4
7FE0
ENDCHAR
STARTCHAR Otilde
ENCODING 213
SWIDTH 578 0
DWIDTH 6 0
BBX 7 11 0 0
BITMAP
0640
2FD0
3AA0
2FD0
B560
EBB4
EBB4
EBB4
F5B4
FFF4
7FE0
ENDCHAR
STARTCHAR Odieresis
ENCODING 214
SWIDTH 578 0
DWIDTH 6 0
BBX 7 10 0 0
BITMAP
1FD0
2AA0
1FD0
B560
EBB4
EBB4
EBB4
F5B4
FFF4
7FE0
ENDCHAR
STARTCHAR multiply
ENCODING 215
SWIDTH 578 0
DWIDTH 6 0
BBX 7 8 0 0
BITMAP
1540
BFE0
FAB4
F9F4
FFF4
FFF4
FFF4
7FE0
ENDCHAR
STARTCHAR Oslash
ENCODING 216
SWIDTH 578 0
DWIDTH 6 0
BBX 7 8 0 0
BITMAP
1540
B560
EA74
EA74
E774
F5B4
FFF4
7FE0
ENDCHAR
STARTCHAR Ugrave
ENCODING 217
SWIDTH 578 0
DWIDTH 6 0
BBX 7 11 0 0
BITMAP
1900
2B40
1E40
1F80
ABA0
EBB4
EBB4
EB74
F5B4
FFF4
7FE0
ENDCHAR
STARTCHAR Uacute
ENCODING 218
SWIDTH 578 0
DWIDTH 6 0
BBX 7 11 0 0
BITMAP
0280
0AD0
0EC0
1F80
ABA0
EBB4
EBB4
EB74
F5B4
FFF4
7FE0
ENDCHAR
STARTCHAR Ucircumflex
ENCODING 219
SWIDTH 578 0
DWIDTH 6 0
BBX 7 11 0 0
BITMAP
0740
0DC0
1A90
2FD0
ABA0
EBB4
EBB4
EB74
F5B4
FFF4
7FE0
ENDCHAR
STARTCHAR Udieresis
ENCODING 220
SWIDTH 578 0
DWIDTH 6 0
BBX 7 10 0 0
BITMAP
1FD0
2AA0
1FD0
ABA0
EBB4
EBB4
EB74
F5B4
FFF4
7FE0
ENDCHAR
STARTCHAR Yacute
ENCODING 221
SWIDTH 578 0
DWIDTH 6 0
BBX 7 11 0 0
BITMAP
0280
0AD0
0EC0
1F80
B760
F6B4
F8F4
FDF4
FEF4
FFF4
7FE0
ENDCHAR
STARTCHAR Thorn
ENCODING 222
SWIDTH 578 0
DWIDTH 6 0
BBX 7 8 0 0
BITMAP
1540
B7E0
F674
F674
F6B4
FBF4
FFF4
7FE0
ENDCHAR
STARTCHAR germandbls
ENCODING 223
SWIDTH 578 0
DWIDTH 6 0
BBX 7 8 0 0
BITMAP
1540
B560
EB74
EA74
EB74
F9B4
FFF4
7FE0
ENDCHAR
STARTCHAR agrave
ENCODING 224
SWIDTH 578 0
DWIDTH 6 0
BBX 7 11 0 0
BITMAP
1900
2B40
1E40
1F80
B5A0
FF74
E574
EB74
F5B4
FFF4
7FE0
ENDCHAR
STARTCHAR aacute
ENCODING 225
SWIDTH 578 0
DWIDTH 6 0
BBX 7 11 0 0
BITMAP
0280
0AD0
0EC0
1F80
B5A0
FF74
E574
EB74
F5B4
FFF4
7FE0
ENDCHAR
STARTCHAR acircumflex
ENCODING 226
SWIDTH 578 0
DWIDTH 6 0
BBX 7 11 0 0
BITMAP
0740
0DC0
1A90
2FD0
B5A0
FF74
E574
EB74
F5B4
FFF4
7FE0
ENDCHAR
STARTCHAR atilde
ENCODING 227
SWIDTH 578 0
DWIDTH 6 0
BBX 7 11 0 0
BITMAP
0640
2FD0
3AA0
2FE0
B5A0
FF74
E574
EB74
F5B4
FFF4
7FE0
ENDCHAR
STARTCHAR adieresis
ENCODING 228
SWIDTH 578 0
DWIDTH 6 0
BBX 7 10 0 0
BITMAP
1FD0
2AA0
1FD0
B5A0
FF74
E574
EB74
F5B4
FFF4
7FE0
ENDCHAR
STARTCHAR aring
ENCODING 229
SWIDTH 578 0
DWIDTH 6 0
BBX 7 11 0 0
BITMAP
0500
1EC0
2A90
2FD0
B5A0
FF74
E574
EB74
F5B4
FFF4
7FE0
ENDCHAR
STARTCHAR ae
ENCODING 230
SWIDTH 578 0
DWIDTH 6 0
BBX 7 8 0 0
BITMAP
1540
B560
E9F4
ED74
D5F4
EE74
FFF4
7FE0
ENDCHAR
STARTCHAR ccedilla
ENCODING 231
SWIDTH 578 0
DWIDTH 6 0
BBX 7 8 0 0
BITMAP
1540
B5A0
EBF4
EBF4
EBF4
F5B4
F6F4
7FE0
ENDCHAR
STARTCHAR egrave
ENCODING 232
SWIDTH 578 0
DWIDTH 6 0
BBX 7 11 0 0
BITMAP
1900
3B00
1A40
1F80
A5A0
EA74
EAB4
EAF4
FAB4
FFF4
7FE0
ENDCHAR
STARTCHAR eacute
ENCODING 233
SWIDTH 578 0
DWIDTH 6 0
BBX 7 11 0 0
BITMAP
0680
0AD0
0EC0
1F80
A5A0
EA74
EAB4
EAF4
FAB4
FFF4
7FE0
ENDCHAR
STARTCHAR ecircumflex
ENCODING 234
SWIDTH 578 0
DWIDTH 6 0
BBX 7 11 0 0
BITMAP
0B40
1A80
2AC0
2FC0
A5A0
EA74
EAB4
EAF4
FAB4
FFF4
7FE0
ENDCHAR
STARTCHAR edieresis
ENCODING 235
SWIDTH 578 0
DWIDTH 6 0
BBX 7 10 0 0
BITMAP
2F80
3AD0
2FC0
A5A0
EA74
EAB4
EAF4
FAB4
FFF4
7FE0
ENDCHAR
STARTCHAR igrave
ENCODING 236
SWIDTH 578 0
DWIDTH 6 0
BBX 7 11 0 0
BITMAP
1A00
2B40
1E40
1F80
B560
FDF4
FDF4
FDF4
F574
FFF4
7FE0
ENDCHAR
STARTCHAR iacute
ENCODING 237
SWIDTH 578 0
DWIDTH 6 0
BBX 7 11 0 0
BITMAP
0280
0AD0
0AC0
1F80
B560
FDF4
FDF4
FDF4
F574
FFF4
7FE0
ENDCHAR
STARTCHAR icircumflex
ENCODING 238
SWIDTH 578 0
DWIDTH 6 0
BBX 7 11 0 0
BITMAP
0740
0DC0
1A90
2FD0
B560
FDF4
FDF4
FDF4
F574
FFF4
7FE0
ENDCHAR
STARTCHAR idieresis
ENCODING 239
SWIDTH 578 0
DWIDTH 6 0
BBX 7 10 0 0
BITMAP
1FD0
2AA0
1FD0
B560
FDF4
FDF4
FDF4
F574
FFF4
7FE0
ENDCHAR
STARTCHAR eth
ENCODING 240
SWIDTH 578 0
DWIDTH 6 0
BBX 7 8 0 0
BITMAP
1540
A560
EBB4
EBB4
EBB4
F5B4
FFF4
7FE0
ENDCHAR
STARTCHAR ntilde
ENCODING 241
SWIDTH 578 0
DWIDTH 6 0
BBX 7 11 0 0
BITMAP
0540
2FD0
3AA0
3FD0
A560
EB74
EB74
EB74
FFB4
FFF4
7FE0
ENDCHAR
STARTCHAR oacute
ENCODING 243
SWIDTH 578 0
DWIDTH 6 0
BBX 7 11 0 0
BITMAP
0680
0AD0
0EC0
1F80
B560
EBB4
EBB4
EBB4
F5B4
FFF4
7FE0
ENDCHAR
STARTCHAR ocircumflex
ENCODING 244
SWIDTH 578 0
DWIDTH 6 0
BBX 7 11 0 0
BITMAP
0740
0DC0
1A90
2FD0
B560
EBB4
EBB4
EBB4
F5B4
FFF4
7FE0
ENDCHAR
STARTCHAR otilde
ENCODING 245
SWIDTH 578 0
DWIDTH 6 0
BBX 7 11 0 0
BITMAP
0540
2FD0
3AA0
2FD0
B560
EBB4
EBB4
EBB4
F5B4
FFF4
7FE0
ENDCHAR
STARTCHAR odieresis
ENCODING 246
SWIDTH 578 0
DWIDTH 6 0
BBX 7 10 0 0
BITMAP
1FD0
2AA0
1FD0
B560
EBB4
EBB4
EBB4
F5B4
FFF4
7FE0
ENDCHAR
STARTCHAR divide
ENCODING 247
SWIDTH 428 0
DWIDTH 5 0
BBX 5 8 0 0
BITMAP
1400
BB40
E680
F780
FF80
FF80
FF80
7E00
ENDCHAR
STARTCHAR oslash
ENCODING 248
SWIDTH 578 0
DWIDTH 6 0
BBX 7 8 0 0
BITMAP
1540
B560
EA74
EA74
E774
F5B4
FFF4
7FE0
ENDCHAR
STARTCHAR ugrave
ENCODING 249
SWIDTH 578 0
DWIDTH 6 0
BBX 7 11 0 0
BITMAP
1A00
2B40
1E40
1F80
ABA0
EBB4
EBB4
EB74
F5B4
FFF4
7FE0
ENDCHAR
STARTCHAR uacute
ENCODING 250
SWIDTH 578 0
DWIDTH 6 0
BBX 7 11 0 0
BITMAP
0280
0AD0
0AC0
1F80
ABA0
EBB4
EBB4
EB74
F5B4
FFF4
7FE0
ENDCHAR
STARTCHAR ucircumflex
ENCODING 251
SWIDTH 578 0
DWIDTH 6 0
BBX 7 11 0 0
BITMAP
0740
0DC0
1A90
2FD0
ABA0
EBB4
EBB4
EB74
F5B4
FFF4
7FE0
ENDCHAR
STARTCHAR udieresis
ENCODING 252
SWIDTH 578 0
DWIDTH 6 0
BBX 7 10 0 0
BITMAP
1FD0
2AA0
1FD0
ABA0
EBB4
EBB4
EB74
F5B4
FFF4
7FE0
ENDCHAR
STARTCHAR yacute
ENCODING 253
SWIDTH 578 0
DWIDTH 6 0
BBX 7 11 0 0
BITMAP
0280
0AD0
0EC0
1F80
B760
F6B4
F8F4
FDF4
FEF4
FFF4
7FE0
ENDCHAR
STARTCHAR thorn
ENCODING 254
SWIDTH 578 0
DWIDTH 6 0
BBX 7 8 0 0
BITMAP
1540
B7E0
F674
F674
F6B4
FBF4
FFF4
7FE0
ENDCHAR
STARTCHAR ydieresis
ENCODING 255
SWIDTH 578 0
DWIDTH 6 0
BBX 7 10 0 0
BITMAP
1FD0
2AA0
1FD0
B760
F6B4
F8F4
FDF4
FEF4
FFF4
7FE0
ENDCHAR
STARTCHAR Amacron
ENCODING 256
SWIDTH 578 0
DWIDTH 6 0
BBX 7 11 0 0
BITMAP
0100
2FD0
39E0
2FD0
B5A0
F774
E574
EB74
EFB4
FFF4
7FE0
ENDCHAR
STARTCHAR amacron
ENCODING 257
SWIDTH 578 0
DWIDTH 6 0
BBX 7 11 0 0
BITMAP
0100
1FD0
39A0
2FD0
B5A0
FF74
E574
EB74
F5B4
FFF4
7FE0
ENDCHAR
STARTCHAR Abreve
ENCODING 258
SWIDTH 578 0
DWIDTH 6 0
BBX 7 11 0 0
BITMAP
0100
2FD0
3AA0
2FD0
B5A0
F774
E574
EB74
EFB4
FFF4
7FE0
ENDCHAR
STARTCHAR abreve
ENCODING 259
SWIDTH 578 0
DWIDTH 6 0
BBX 7 11 0 0
BITMAP
0100
1FD0
3AA0
2FD0
B5A0
FF74
E574
EB74
F5B4
FFF4
7FE0
ENDCHAR
STARTCHAR Aogonek
ENCODING 260
SWIDTH 578 0
DWIDTH 6 0
BBX 7 8 0 0
BITMAP
1540
B5A0
F774
E574
EB74
EF74
FF74
7F90
ENDCHAR
STARTCHAR aogonek
ENCODING 261
SWIDTH 578 0
DWIDTH 6 0
BBX 7 8 0 0
BITMAP
1540
B5A0
FF74
E574
EB74
F5B4
FAF4
7EE0
ENDCHAR
STARTCHAR Cacute
ENCODING 262
SWIDTH 578 0
DWIDTH 6 0
BBX 7 11 0 0
BITMAP
0280
0AD0
0AC0
1F80
B5A0
EBF4
EBF4
EBF4
F5B4
FFF4
7FE0
ENDCHAR
STARTCHAR cacute
ENCODING 263
SWIDTH 578 0
DWIDTH 6 0
BBX 7 11 0 0
BITMAP
0280
0AD0
0EC0
1F80
B5A0
EBF4
EBF4
EBF4
F5B4
FFF4
7FE0
ENDCHAR
STARTCHAR Ccircumflex
ENCODING 264
SWIDTH 578 0
DWIDTH 6 0
BBX 7 11 0 0
BITMAP
0B40
0DC0
2AD0
2FD0
B5A0
EBF4
EBF4
EBF4
F5B4
FFF4
7FE0
ENDCHAR
STARTCHAR ccircumflex
ENCODING 265
SWIDTH 578 0
DWIDTH 6 0
BBX 7 11 0 0
BITMAP
0B40
1D80
2AD0
2FC0
B5A0
EBF4
EBF4
EBF4
F5B4
FFF4
7FE0
ENDCHAR
STARTCHAR Cdotaccent
ENCODING 266
SWIDTH 578 0
DWIDTH 6 0
BBX 7 10 0 0
BITMAP
2FC0
7AD0
3FD0
B5A0
EBF4
EBF4
EBF4
F5B4
FFF4
7FE0
ENDCHAR
STARTCHAR cdotaccent
ENCODING 267
SWIDTH 578 0
DWIDTH 6 0
BBX 7 11 0 0
BITMAP
0100
2FC0
3EE0
3FD0
B5A0
EBF4
EBF4
EBF4
F5B4
FFF4
7FE0
ENDCHAR
STARTCHAR Ccaron
ENCODING 268
SWIDTH 578 0
DWIDTH 6 0
BBX 7 11 0 0
BITMAP
1940
2AC0
2AC0
1F80
B5A0
EBF4
EBF4
EBF4
F5B4
FFF4
7FE0
ENDCHAR
STARTCHAR ccaron
ENCODING 269
SWIDTH 578 0
DWIDTH 6 0
BBX 7 11 0 0
BITMAP
1940
2AC0
2AC0
1F80
B5A0
EBF4
EBF4
EBF4
F5B4
FFF4
7FE0
ENDCHAR
STARTCHAR Dcaron
ENCODING 270
SWIDTH 578 0
DWIDTH 6 0
BBX 7 11 0 0
BITMAP
1940
2AC0
2AC0
1F80
A560
EBB4
EBB4
EBB4
F5B4
FFF4
7FE0
ENDCHAR
STARTCHAR dcaron
ENCODING 271
SWIDTH 578 0
DWIDTH 6 0
BBX 7 8 0 0
BITMAP
1540
9560
DF74
DFB4
DFB4
E5F4
FFF4
7FE0
ENDCHAR
STARTCHAR Dcroat
ENCODING 272
SWIDTH 578 0
DWIDTH 6 0
BBX 7 8 0 0
BITMAP
1540
A560
EBB4
D7B4
EBB4
F5B4
FFF4
7FE0
ENDCHAR
STARTCHAR dcroat
ENCODING 273
SWIDTH 578 0
DWIDTH 6 0
BBX 7 8 0 0
BITMAP
1540
A560
EBB4
D7B4
EBB4
F5B4
FFF4
7FE0
ENDCHAR
STARTCHAR Emacron
ENCODING 274
SWIDTH 578 0
DWIDTH 6 0
BBX 7 11 0 0
BITMAP
0100
1FD0
39A0
2FD0
B5A0
F7F4
F5B4
F7F4
F9B4
FFF4
7FE0
ENDCHAR
STARTCHAR emacron
ENCODING 275
SWIDTH 578 0
DWIDTH 6 0
BBX 7 11 0 0
BITMAP
0100
2FC0
35D0
3FD0
A5A0
EA74
EAB4
EAF4
FAB4
FFF4
7FE0
ENDCHAR
STARTCHAR Ebreve
ENCODING 276
SWIDTH 578 0
DWIDTH 6 0
BBX 7 11 0 0
BITMAP
0100
1FD0
3AA0
2FD0
B5A0
F7F4
F5B4
F7F4
F9B4
FFF4
7FE0
ENDCHAR
STARTCHAR ebreve
ENCODING 277
SWIDTH 578 0
DWIDTH 6 0
BBX 7 11 0 0
BITMAP
0100
2FC0
3AD0
3FD0
A5A0
EA74
EAB4
EAF4
FAB4
FFF4
7FE0
ENDCHAR
STARTCHAR Edotaccent
ENCODING 278
SWIDTH 578 0
DWIDTH 6 0
BBX 7 11 0 0
BITMAP
0100
1FD0
3EE0
2FE0
B5A0
F7F4
F5B4
F7F4
F9B4
FFF4
7FE0
ENDCHAR
STARTCHAR edotaccent
ENCODING 279
SWIDTH 578 0
DWIDTH 6 0
BBX 7 11 0 0
BITMAP
0100
2FC0
3EE0
3FD0
A5A0
EA74
EAB4
EAF4
FAB4
FFF4
7FE0
ENDCHAR
STARTCHAR Eogonek
ENCODING 280
SWIDTH 578 0
DWIDTH 6 0
BBX 7 8 0 0
BITMAP
1540
B5A0
F7F4
F5B4
F7F4
F974
FEB4
7FA0
ENDCHAR
STARTCHAR eogonek
ENCODING 281
SWIDTH 578 0
DWIDTH 6 0
BBX 7 8 0 0
BITMAP
1540
A5A0
EA74
EAB4
EAF4
F9B4
FDF4
7FE0
ENDCHAR
STARTCHAR Ecaron
ENCODING 282
SWIDTH 578 0
DWIDTH 6 0
BBX 7 11 0 0
BITMAP
0980
1B90
1DD0
1FC0
B5A0
F7F4
F5B4
F7F4
F9B4
FFF4
7FE0
ENDCHAR
STARTCHAR ecaron
ENCODING 283
SWIDTH 578 0
DWIDTH 6 0
BBX 7 11 0 0
BITMAP
1940
2AC0
2AC0
1F80
A5A0
EA74
EAB4
EAF4
FAB4
FFF4
7FE0
ENDCHAR
STARTCHAR Gcircumflex
ENCODING 284
SWIDTH 578 0
DWIDTH 6 0
BBX 7 11 0 0
BITMAP
0B40
1E80
2AC0
2FC0
B5A0
FBF4
FA74
FBB4
F9B4
FFF4
7FE0
ENDCHAR
STARTCHAR gcircumflex
ENCODING 285
SWIDTH 578 0
DWIDTH 6 0
BBX 7 11 0 0
BITMAP
0B40
1E80
2AC0
2FC0
B5A0
FBF4
FA74
FBB4
F9B4
FFF4
7FE0
ENDCHAR
STARTCHAR Gbreve
ENCODING 286
SWIDTH 578 0
DWIDTH 6 0
BBX 7 11 0 0
BITMAP
0100
2FD0
3AE0
2FD0
B5A0
FBF4
FA74
FBB4
F9B4
FFF4
7FE0
ENDCHAR
STARTCHAR gbreve
ENCODING 287
SWIDTH 578 0
DWIDTH 6 0
BBX 7 11 0 0
BITMAP
0100
2FC0
3AD0
3FD0
B5A0
FBF4
FA74
FBB4
F9B4
FFF4
7FE0
ENDCHAR
STARTCHAR Gdotaccent
ENCODING 288
SWIDTH 578 0
DWIDTH 6 0
BBX 7 11 0 0
BITMAP
0100
2FC0
3EE0
3FD0
B5A0
FBF4
FA74
FBB4
F9B4
FFF4
7FE0
ENDCHAR
STARTCHAR gdotaccent
ENCODING 289
SWIDTH 578 0
DWIDTH 6 0
BBX 7 11 0 0
BITMAP
0100
2FC0
3EE0
3FD0
B5A0
FBF4
FA74
FBB4
F9B4
FFF4
7FE0
ENDCHAR
STARTCHAR Gcommaaccent
ENCODING 290
SWIDTH 578 0
DWIDTH 6 0
BBX 7 8 0 0
BITMAP
1540
B5A0
FBF4
FA74
FBB4
F9B4
FDF4
7FE0
ENDCHAR
STARTCHAR gcommaaccent
ENCODING 291
SWIDTH 578 0
DWIDTH 6 0
BBX 7 8 0 0
BITMAP
1540
B5A0
FBF4
FA74
FBB4
F9B4
FDF4
7FE0
ENDCHAR
STARTCHAR Hcircumflex
ENCODING 292
SWIDTH 578 0
DWIDTH 6 0
BBX 7 11 0 0
BITMAP
0B40
1D80
2AD0
2FC0
ABA0
EBB4
E574
EBB4
FBB4
FFF4
7FE0
ENDCHAR
STARTCHAR hcircumflex
ENCODING 293
SWIDTH 578 0
DWIDTH 6 0
BBX 7 11 0 0
BITMAP
0B40
0DC0
2AD0
2FD0
ABA0
EBB4
E574
EBB4
FBB4
FFF4
7FE0
ENDCHAR
STARTCHAR Hbar
ENCODING 294
SWIDTH 578 0
DWIDTH 6 0
BBX 7 11 0 0
BITMAP
0100
2FD0
39E0
2FD0
ABA0
EBB4
E574
EBB4
FBB4
FFF4
7FE0
ENDCHAR
STARTCHAR hbar
ENCODING 295
SWIDTH 578 0
DWIDTH 6 0
BBX 7 8 0 0
BITMAP
1540
ABA0
E664
E574
EBB4
FBB4
FFF4
7FE0
ENDCHAR
STARTCHAR Itilde
ENCODING 296
SWIDTH 578 0
DWIDTH 6 0
BBX 7 11 0 0
BITMAP
0640
2FE0
2AA0
2FE0
B560
FDF4
FDF4
FDF4
F574
FFF4
7FE0
ENDCHAR
STARTCHAR itilde
ENCODING 297
SWIDTH 578 0
DWIDTH 6 0
BBX 7 11 0 0
BITMAP
0640
2FD0
3AA0
2FE0
B560
FDF4
FDF4
FDF4
F574
FFF4
7FE0
ENDCHAR
STARTCHAR Imacron
ENCODING 298
SWIDTH 578 0
DWIDTH 6 0
BBX 7 11 0 0
BITMAP
0100
1FD0
39A0
2FD0
B560
FDF4
FDF4
FDF4
F574
FFF4
7FE0
ENDCHAR
STARTCHAR imacron
ENCODING 299
SWIDTH 578 0
DWIDTH 6 0
BBX 7 11 0 0
BITMAP
0100
1FD0
39A0
2FD0
B560
FDF4
FDF4
FDF4
F574
FFF4
7FE0
ENDCHAR
STARTCHAR Ibreve
ENCODING 300
SWIDTH 578 0
DWIDTH 6 0
BBX 7 11 0 0
BITMAP
0100
1FD0
2AA0
2FD0
B560
FDF4
FDF4
FDF4
F574
FFF4
7FE0
ENDCHAR
STARTCHAR ibreve
ENCODING 301
SWIDTH 578 0
DWIDTH 6 0
BBX 7 11 0 0
BITMAP
0100
1FD0
3AA0
2FD0
B560
FDF4
FDF4
FDF4
F574
FFF4
7FE0
ENDCHAR
STARTCHAR Iogonek
ENCODING 302
SWIDTH 578 0
DWIDTH 6 0
BBX 7 8 0 0
BITMAP
1540
B560
FDF4
FDF4
FDF4
F574
FF74
7FA0
ENDCHAR
STARTCHAR iogonek
ENCODING 303
SWIDTH 578 0
DWIDTH 6 0
BBX 7 8 0 0
BITMAP
1540
B560
FDF4
FDF4
FDF4
F574
FF74
7FA0
ENDCHAR
STARTCHAR Idotaccent
ENCODING 304
SWIDTH 578 0
DWIDTH 6 0
BBX 7 11 0 0
BITMAP
0100
2FD0
3EE0
3FD0
B560
FDF4
FDF4
FDF4
F574
FFF4
7FE0
ENDCHAR
STARTCHAR dotlessi
ENCODING 305
SWIDTH 578 0
DWIDTH 6 0
BBX 7 8 0 0
BITMAP
1540
B560
FDF4
FDF4
FDF4
F574
FFF4
7FE0
ENDCHAR
STARTCHAR IJ
ENCODING 306
SWIDTH 578 0
DWIDTH 6 0
BBX 7 8 0 0
BITMAP
1540
97A0
EBA4
EBA4
EBA4
D674
FFF4
7FE0
ENDCHAR
STARTCHAR ij
ENCODING 307
SWIDTH 578 0
DWIDTH 6 0
BBX 7 8 0 0
BITMAP
1540
97A0
EBA4
EBA4
EBA4
D674
FFF4
7FE0
ENDCHAR
STARTCHAR Jcircumflex
ENCODING 308
SWIDTH 578 0
DWIDTH 6 0
BBX 7 11 0 0
BITMAP
0B40
0DC0
1AD0
2FD0
BEA0
FEB4
FEB4
FEB4
F9F4
FFF4
7FE0
ENDCHAR
STARTCHAR jcircumflex
ENCODING 309
SWIDTH 578 0
DWIDTH 6 0
BBX 7 11 0 0
BITMAP
0B40
0DC0
1AD0
2FD0
BEA0
FEB4
FEB4
FEB4
F9F4
FFF4
7FE0
ENDCHAR
STARTCHAR Kcommaaccent
ENCODING 310
SWIDTH 578 0
DWIDTH 6 0
BBX 7 8 0 0
BITMAP
1540
B760
F5B4
F5F4
F674
FBB4
FDF4
7FE0
ENDCHAR
STARTCHAR kcommaaccent
ENCODING 311
SWIDTH 578 0
DWIDTH 6 0
BBX 7 8 0 0
BITMAP
1540
B760
F5B4
F5F4
F674
FBB4
FDF4
7FE0
ENDCHAR
STARTCHAR kgreenlandic
ENCODING 312
SWIDTH 578 0
DWIDTH 6 0
BBX 7 8 0 0
BITMAP
1540
B760
F5B4
F5F4
F674
FBB4
FFF4
7FE0
ENDCHAR
STARTCHAR Lacute
ENCODING 313
SWIDTH 578 0
DWIDTH 6 0
BBX 7 11 0 0
BITMAP
0640
1E80
1B40
1F40
B7E0
F7F4
F7F4
F7F4
F9B4
FFF4
7FE0
ENDCHAR
STARTCHAR lacute
ENCODING 314
SWIDTH 578 0
DWIDTH 6 0
BBX 7 11 0 0
BITMAP
0640
1E80
1B40
1F40
B7E0
F7F4
F7F4
F7F4
F9B4
FFF4
7FE0
ENDCHAR
STARTCHAR Lcommaaccent
ENCODING 315
SWIDTH 578 0
DWIDTH 6 0
BBX 7 8 0 0
BITMAP
1540
B7E0
F7F4
F7F4
F7F4
F9B4
FDF4
7FE0
ENDCHAR
STARTCHAR lcommaaccent
ENCODING 316
SWIDTH 578 0
DWIDTH 6 0
BBX 7 8 0 0
BITMAP
1540
B7E0
F7F4
F7F4
F7F4
F9B4
FDF4
7FE0
ENDCHAR
STARTCHAR Lcaron
ENCODING 317
SWIDTH 578 0
DWIDTH 6 0
BBX 7 8 0 0
BITMAP
1540
B6A0
F7F4
F7F4
F7F4
F9B4
FFF4
7FE0
ENDCHAR
STARTCHAR lcaron
ENCODING 318
SWIDTH 578 0
DWIDTH 6 0
BBX 7 8 0 0
BITMAP
1540
B6A0
F7F4
F7F4
F7F4
F9B4
FFF4
7FE0
ENDCHAR
STARTCHAR Ldot
ENCODING 319
SWIDTH 578 0
DWIDTH 6 0
BBX 7 8 0 0
BITMAP
1540
B7E0
F6F4
F7F4
F7F4
F9B4
FFF4
7FE0
ENDCHAR
STARTCHAR ldot
ENCODING 320
SWIDTH 578 0
DWIDTH 6 0
BBX 7 8 0 0
BITMAP
1540
B7E0
F6F4
F7F4
F7F4
F9B4
FFF4
7FE0
ENDCHAR
STARTCHAR Lslash
ENCODING 321
SWIDTH 578 0
DWIDTH 6 0
BBX 7 8 0 0
BITMAP
1540
B7E0
F6F4
F7F4
F7F4
F9B4
FFF4
7FE0
ENDCHAR
STARTCHAR lslash
ENCODING 322
SWIDTH 578 0
DWIDTH 6 0
BBX 7 8 0 0
BITMAP
1540
B7E0
F6F4
F7F4
F7F4
F9B4
FFF4
7FE0
ENDCHAR
STARTCHAR Nacute
ENCODING 323
SWIDTH 578 0
DWIDTH 6 0
BBX 7 11 0 0
BITMAP
0680
0AD0
0EC0
1F80
A560
EB74
EB74
EB74
FFB4
FFF4
7FE0
ENDCHAR
STARTCHAR nacute
ENCODING 324
SWIDTH 578 0
DWIDTH 6 0
BBX 7 11 0 0
BITMAP
0680
0AD0
0EC0
1F80
A560
EB74
EB74
EB74
FFB4
FFF4
7FE0
ENDCHAR
STARTCHAR Ncommaaccent
ENCODING 325
SWIDTH 578 0
DWIDTH 6 0
BBX 7 8 0 0
BITMAP
1540
A560
EB74
EB74
EB74
FFB4
FDF4
7FE0
ENDCHAR
STARTCHAR ncommaaccent
ENCODING 326
SWIDTH 578 0
DWIDTH 6 0
BBX 7 8 0 0
BITMAP
1540
A560
EB74
EB74
EB74
FFB4
FDF4
7FE0
ENDCHAR
STARTCHAR Ncaron
ENCODING 327
SWIDTH 578 0
DWIDTH 6 0
BBX 7 11 0 0
BITMAP
1940
2AC0
2AC0
1F80
A560
EB74
EB74
EB74
FFB4
FFF4
7FE0
ENDCHAR
STARTCHAR ncaron
ENCODING 328
SWIDTH 578 0
DWIDTH 6 0
BBX 7 11 0 0
BITMAP
1940
2AC0
2AC0
1F80
A560
EB74
EB74
EB74
FFB4
FFF4
7FE0
ENDCHAR
STARTCHAR napostrophe
ENCODING 329
SWIDTH 578 0
DWIDTH 6 0
BBX 7 8 0 0
BITMAP
1540
6560
9B74
EB74
EB74
FFB4
FFF4
7FE0
ENDCHAR
STARTCHAR Eng
ENCODING 330
SWIDTH 578 0
DWIDTH 6 0
BBX 7 8 0 0
BITMAP
1540
A560
EB74
EB74
EB74
FF74
FE74
7FE0
ENDCHAR
STARTCHAR eng
ENCODING 331
SWIDTH 578 0
DWIDTH 6 0
BBX 7 8 0 0
BITMAP
1540
A560
EB74
EB74
EB74
FF74
FE74
7FE0
ENDCHAR
STARTCHAR Omacron
ENCODING 332
SWIDTH 578 0
DWIDTH 6 0
BBX 7 11 0 0
BITMAP
0100
1FD0
39A0
2FD0
B560
EBB4
EBB4
EBB4
F5B4
FFF4
7FE0
ENDCHAR
STARTCHAR omacron
ENCODING 333
SWIDTH 578 0
DWIDTH 6 0
BBX 7 11 0 0
BITMAP
0100
1FD0
39A0
2FD0
B560
EBB4
EBB4
EBB4
F5B4
FFF4
7FE0
ENDCHAR
STARTCHAR Obreve
ENCODING 334
SWIDTH 578 0
DWIDTH 6 0
BBX 7 11 0 0
BITMAP
0100
1FD0
3AA0
2FD0
B560
EBB4
EBB4
EBB4
F5B4
FFF4
7FE0
ENDCHAR
STARTCHAR obreve
ENCODING 335
SWIDTH 578 0
DWIDTH 6 0
BBX 7 11 0 0
BITMAP
0100
1FD0
3AA0
2FD0
B560
EBB4
EBB4
EBB4
F5B4
FFF4
7FE0
ENDCHAR
STARTCHAR Ohungarumlaut
ENCODING 336
SWIDTH 578 0
DWIDTH 6 0
BBX 7 11 0 0
BITMAP
02A0
0AB4
0EB0
1FD0
B560
EBB4
EBB4
EBB4
F5B4
FFF4
7FE0
ENDCHAR
STARTCHAR ohungarumlaut
ENCODING 337
SWIDTH 578 0
DWIDTH 6 0
BBX 7 11 0 0
BITMAP
02A0
0AB4
0EB0
1FD0
B560
EBB4
EBB4
EBB4
F5B4
FFF4
7FE0
ENDCHAR
STARTCHAR OE
ENCODING 338
SWIDTH 578 0
DWIDTH 6 0
BBX 7 8 0 0
BITMAP
1540
A560
DDF4
DD74
DDF4
E574
FFF4
7FE0
ENDCHAR
STARTCHAR oe
ENCODING 339
SWIDTH 578 0
DWIDTH 6 0
BBX 7 8 0 0
BITMAP
1540
A560
DDF4
DD74
DDF4
E574
FFF4
7FE0
ENDCHAR
STARTCHAR Racute
ENCODING 340
SWIDTH 578 0
DWIDTH 6 0
BBX 7 11 0 0
BITMAP
0680
0AD0
0EC0
1F80
B5A0
FB74
F5B4
FB74
FBB4
FFF4
7FE0
ENDCHAR
STARTCHAR racute
ENCODING 341
SWIDTH 578 0
DWIDTH 6 0
BBX 7 11 0 0
BITMAP
0680
0AD0
0EC0
1F80
B5A0
FB74
F5B4
FB74
FBB4
FFF4
7FE0
ENDCHAR
STARTCHAR Rcommaaccent
ENCODING 342
SWIDTH 578 0
DWIDTH 6 0
BBX 7 8 0 0
BITMAP
1540
B5A0
FB74
F5B4
FB74
FBB4
FDF4
7FE0
ENDCHAR
STARTCHAR rcommaaccent
ENCODING 343
SWIDTH 578 0
DWIDTH 6 0
BBX 7 8 0 0
BITMAP
1540
B5A0
FB74
F5B4
FB74
FBB4
FDF4
7FE0
ENDCHAR
STARTCHAR Rcaron
ENCODING 344
SWIDTH 578 0
DWIDTH 6 0
BBX 7 11 0 0
BITMAP
1940
2AC0
2AC0
1F80
B5A0
FB74
F5B4
FB74
FBB4
FFF4
7FE0
ENDCHAR
STARTCHAR rcaron
ENCODING 345
SWIDTH 578 0
DWIDTH 6 0
BBX 7 11 0 0
BITMAP
1940
2AC0
2AC0
1F80
B5A0
FB74
F5B4
FB74
FBB4
FFF4
7FE0
ENDCHAR
STARTCHAR Sacute
ENCODING 346
SWIDTH 578 0
DWIDTH 6 0
BBX 7 11 0 0
BITMAP
0280
06D0
0AC0
1F80
B5A0
FBF4
F574
FF74
F9B4
FFF4
7FE0
ENDCHAR
STARTCHAR sacute
ENCODING 347
SWIDTH 578 0
DWIDTH 6 0
BBX 7 11 0 0
BITMAP
0280
06D0
0AC0
1F80
B5A0
FBF4
F574
FF74
F9B4
FFF4
7FE0
ENDCHAR
STARTCHAR Scircumflex
ENCODING 348
SWIDTH 578 0
DWIDTH 6 0
BBX 7 11 0 0
BITMAP
0740
0DC0
1A90
1FD0
B5A0
FBF4
F574
FF74
F9B4
FFF4
7FE0
ENDCHAR
STARTCHAR scircumflex
ENCODING 349
SWIDTH 578 0
DWIDTH 6 0
BBX 7 11 0 0
BITMAP
0740
0DC0
1A90
1FD0
B5A0
FBF4
F574
FF74
F9B4
FFF4
7FE0
ENDCHAR
STARTCHAR Scedilla
ENCODING 350
SWIDTH 578 0
DWIDTH 6 0
BBX 7 8 0 0
BITMAP
1540
B5A0
FBF4
F574
FF74
F5B4
FAF4
7EE0
ENDCHAR
STARTCHAR scedilla
ENCODING 351
SWIDTH 578 0
DWIDTH 6 0
BBX 7 8 0 0
BITMAP
1540
B5A0
FBF4
F574
FF74
F5B4
FAF4
7EE0
ENDCHAR
STARTCHAR Scaron
ENCODING 352
SWIDTH 578 0
DWIDTH 6 0
BBX 7 11 0 0
BITMAP
0980
1B90
1DD0
1FC0
B5A0
FBF4
F574
FF74
F9B4
FFF4
7FE0
ENDCHAR
STARTCHAR scaron
ENCODING 353
SWIDTH 578 0
DWIDTH 6 0
BBX 7 11 0 0
BITMAP
0980
1B90
1DD0
1FC0
B5A0
FBF4
F574
FF74
F9B4
FFF4
7FE0
ENDCHAR
STARTCHAR Tcommaaccent
ENCODING 354
SWIDTH 578 0
DWIDTH 6 0
BBX 7 8 0 0
BITMAP
1540
B560
FDF4
FDF4
FDF4
FEF4
FDF4
7FE0
ENDCHAR
STARTCHAR tcommaaccent
ENCODING 355
SWIDTH 578 0
DWIDTH 6 0
BBX 7 8 0 0
BITMAP
1540
B560
FDF4
FDF4
FDF4
FEF4
FDF4
7FE0
ENDCHAR
STARTCHAR Tcaron
ENCODING 356
SWIDTH 578 0
DWIDTH 6 0
BBX 7 11 0 0
BITMAP
0980
2BD0
1DC0
1FC0
B560
FDF4
FDF4
FDF4
FEF4
FFF4
7FE0
ENDCHAR
STARTCHAR tcaron
ENCODING 357
SWIDTH 578 0
DWIDTH 6 0
BBX 7 8 0 0
BITMAP
1540
B560
FD74
FDF4
FDF4
FEF4
FFF4
7FE0
ENDCHAR
STARTCHAR Tbar
ENCODING 358
SWIDTH 578 0
DWIDTH 6 0
BBX 7 8 0 0
BITMAP
1540
B560
FDF4
F9B4
FDF4
FEF4
FFF4
7FE0
ENDCHAR
STARTCHAR tbar
ENCODING 359
SWIDTH 578 0
DWIDTH 6 0
BBX 7 8 0 0
BITMAP
1540
B560
FDF4
F9B4
FDF4
FEF4
FFF4
7FE0
ENDCHAR
STARTCHAR Utilde
ENCODING 360
SWIDTH 578 0
DWIDTH 6 0
BBX 7 11 0 0
BITMAP
0640
2FD0
3AA0
2FE0
ABA0
EBB4
EBB4
EB74
F5B4
FFF4
7FE0
ENDCHAR
STARTCHAR utilde
ENCODING 361
SWIDTH 578 0
DWIDTH 6 0
BBX 7 11 0 0
BITMAP
0640
2FD0
3AA0
2FE0
ABA0
EBB4
EBB4
EB74
F5B4
FFF4
7FE0
ENDCHAR
STARTCHAR Umacron
ENCODING 362
SWIDTH 578 0
DWIDTH 6 0
BBX 7 11 0 0
BITMAP
0100
1FD0
39A0
2FD0
ABA0
EBB4
EBB4
EB74
F5B4
FFF4
7FE0
ENDCHAR
STARTCHAR umacron
ENCODING 363
SWIDTH 578 0
DWIDTH 6 0
BBX 7 11 0 0
BITMAP
0100
1FD0
39A0
2FD0
ABA0
EBB4
EBB4
EB74
F5B4
FFF4
7FE0
ENDCHAR
STARTCHAR Ubreve
ENCODING 364
SWIDTH 578 0
DWIDTH 6 0
BBX 7 11 0 0
BITMAP
0100
1FD0
3AA0
2FD0
ABA0
EBB4
EBB4
EB74
F5B4
FFF4
7FE0
ENDCHAR
STARTCHAR ubreve
ENCODING 365
SWIDTH 578 0
DWIDTH 6 0
BBX 7 11 0 0
BITMAP
0100
1FD0
3AA0
2FD0
ABA0
EBB4
EBB4
EB74
F5B4
FFF4
7FE0
ENDCHAR
STARTCHAR Uring
ENCODING 366
SWIDTH 578 0
DWIDTH 6 0
BBX 7 11 0 0
BITMAP
0500
1EC0
2A90
2FD0
ABA0
EBB4
EBB4
EB74
F5B4
FFF4
7FE0
ENDCHAR
STARTCHAR uring
ENCODING 367
SWIDTH 578 0
DWIDTH 6 0
BBX 7 11 0 0
BITMAP
0500
1EC0
2A90
2FD0
ABA0
EBB4
EBB4
EB74
F5B4
FFF4
7FE0
ENDCHAR
STARTCHAR Uhungarumlaut
ENCODING 368
SWIDTH 581 0
DWIDTH 6 0
BBX 7 11 0 0
BITMAP
02A0
0AA4
0EB0
1FD0
ABA0
EBB4
EBB4
EB74
F5B4
FFF4
7FE0
ENDCHAR
STARTCHAR uhungarumlaut
ENCODING 369
SWIDTH 582 0
DWIDTH 6 0
BBX 7 11 0 0
BITMAP
02A0
0AA4
0EB0
1FD0
ABA0
EBB4
EBB4
EB74
F5B4
FFF4
7FE0
ENDCHAR
STARTCHAR Uogonek
ENCODING 370
SWIDTH 578 0
DWIDTH 6 0
BBX 7 8 0 0
BITMAP
1540
ABA0
EBB4
EBB4
EB74
F5B4
FDF4
7EE0
ENDCHAR
STARTCHAR uogonek
ENCODING 371
SWIDTH 578 0
DWIDTH 6 0
BBX 7 8 0 0
BITMAP
1540
ABA0
EBB4
EBB4
EB74
F5B4
FDF4
7EE0
ENDCHAR
STARTCHAR Wcircumflex
ENCODING 372
SWIDTH 578 0
DWIDTH 6 0
BBX 7 11 0 0
BITMAP
0B40
1E80
2AD0
2FC0
9E90
DDA4
D9A4
E674
FBB4
FFF4
7FE0
ENDCHAR
STARTCHAR wcircumflex
ENCODING 373
SWIDTH 578 0
DWIDTH 6 0
BBX 7 11 0 0
BITMAP
0B40
1E80
2AD0
2FC0
9E90
DDA4
D9A4
E674
FBB4
FFF4
7FE0
ENDCHAR
STARTCHAR Ycircumflex
ENCODING 374
SWIDTH 578 0
DWIDTH 6 0
BBX 7 11 0 0
BITMAP
0B40
0DC0
1AD0
2FD0
B760
F6B4
F8F4
FDF4
FEF4
FFF4
7FE0
ENDCHAR
STARTCHAR ycircumflex
ENCODING 375
SWIDTH 578 0
DWIDTH 6 0
BBX 7 11 0 0
BITMAP
0B40
0DC0
1AD0
2FD0
B760
F6B4
F8F4
FDF4
FEF4
FFF4
7FE0
ENDCHAR
STARTCHAR Ydieresis
ENCODING 376
SWIDTH 578 0
DWIDTH 6 0
BBX 7 10 0 0
BITMAP
1FD0
2AA0
1FD0
B760
F6B4
F8F4
FDF4
FEF4
FFF4
7FE0
ENDCHAR
STARTCHAR Zacute
ENCODING 377
SWIDTH 578 0
DWIDTH 6 0
BBX 7 11 0 0
BITMAP
0640
0EC0
1E80
1F40
B5A0
FDF4
FDF4
F7F4
F9B4
FFF4
7FE0
ENDCHAR
STARTCHAR zacute
ENCODING 378
SWIDTH 578 0
DWIDTH 6 0
BBX 7 11 0 0
BITMAP
0640
0EC0
1E80
1F40
B5A0
FDF4
FDF4
F7F4
F9B4
FFF4
7FE0
ENDCHAR
STARTCHAR Zdotaccent
ENCODING 379
SWIDTH 578 0
DWIDTH 6 0
BBX 7 11 0 0
BITMAP
0100
2FC0
3EE0
3FD0
B5A0
FDF4
FDF4
F7F4
F9B4
FFF4
7FE0
ENDCHAR
STARTCHAR zdotaccent
ENCODING 380
SWIDTH 578 0
DWIDTH 6 0
BBX 7 11 0 0
BITMAP
0100
2FC0
3EE0
3FD0
B5A0
FDF4
FDF4
F7F4
F9B4
FFF4
7FE0
ENDCHAR
STARTCHAR Zcaron
ENCODING 381
SWIDTH 578 0
DWIDTH 6 0
BBX 7 11 0 0
BITMAP
1980
2AD0
1AC0
1FC0
B5A0
FDF4
FDF4
F7F4
F9B4
FFF4
7FE0
ENDCHAR
STARTCHAR zcaron
ENCODING 382
SWIDTH 578 0
DWIDTH 6 0
BBX 7 11 0 0
BITMAP
1980
2AD0
1AC0
1FC0
B5A0
FDF4
FDF4
F7F4
F9B4
FFF4
7FE0
ENDCHAR
STARTCHAR longs
ENCODING 383
SWIDTH 578 0
DWIDTH 6 0
BBX 7 8 0 0
BITMAP
1540
BAE0
EBB4
EEB4
FAB4
FFF4
FFF4
7FE0
ENDCHAR
STARTCHAR florin
ENCODING 402
SWIDTH 578 0
DWIDTH 6 0
BBX 7 8 0 0
BITMAP
1540
BDE0
FAF4
F5F4
FAF4
FAF4
F7F4
7FE0
ENDCHAR
STARTCHAR uni01CD
ENCODING 461
SWIDTH 578 0
DWIDTH 6 0
BBX 7 11 0 0
BITMAP
0980
2BD0
1DC0
1FC0
B5A0
F774
E574
EB74
EFB4
FFF4
7FE0
ENDCHAR
STARTCHAR uni01CE
ENCODING 462
SWIDTH 578 0
DWIDTH 6 0
BBX 7 11 0 0
BITMAP
0980
1B90
1DD0
1FC0
B5A0
FF74
E574
EB74
F5B4
FFF4
7FE0
ENDCHAR
STARTCHAR uni01CF
ENCODING 463
SWIDTH 578 0
DWIDTH 6 0
BBX 7 11 0 0
BITMAP
0980
1B90
1DD0
1FC0
B560
FDF4
FDF4
FDF4
F574
FFF4
7FE0
ENDCHAR
STARTCHAR uni01D0
ENCODING 464
SWIDTH 578 0
DWIDTH 6 0
BBX 7 11 0 0
BITMAP
0980
1B90
1DD0
1FC0
B560
FDF4
FDF4
FDF4
F574
FFF4
7FE0
ENDCHAR
STARTCHAR uni01D1
ENCODING 465
SWIDTH 578 0
DWIDTH 6 0
BBX 7 11 0 0
BITMAP
0980
1B90
1DD0
1FC0
B560
EBB4
EBB4
EBB4
F5B4
FFF4
7FE0
ENDCHAR
STARTCHAR uni01D3
ENCODING 467
SWIDTH 578 0
DWIDTH 6 0
BBX 7 11 0 0
BITMAP
0980
1B90
1DD0
1FC0
ABA0
EBB4
EBB4
EB74
F5B4
FFF4
7FE0
ENDCHAR
STARTCHAR uni01D4
ENCODING 468
SWIDTH 578 0
DWIDTH 6 0
BBX 7 11 0 0
BITMAP
0980
1B90
1DD0
1FC0
ABA0
EBB4
EBB4
EB74
F5B4
FFF4
7FE0
ENDCHAR
STARTCHAR uni0200
ENCODING 512
SWIDTH 578 0
DWIDTH 6 0
BBX 7 11 0 0
BITMAP
2A00
6A40
3AC0
2FC0
B5A0
F774
E574
EB74
EFB4
FFF4
7FE0
ENDCHAR
STARTCHAR uni0201
ENCODING 513
SWIDTH 578 0
DWIDTH 6 0
BBX 7 11 0 0
BITMAP
2A00
6A40
3AC0
2FC0
B5A0
FF74
E574
EB74
F5B4
FFF4
7FE0
ENDCHAR
STARTCHAR uni0202
ENCODING 514
SWIDTH 578 0
DWIDTH 6 0
BBX 7 10 0 0
BITMAP
2FD0
39E0
2FD0
B5A0
F774
E574
EB74
EFB4
FFF4
7FE0
ENDCHAR
STARTCHAR uni0203
ENCODING 515
SWIDTH 578 0
DWIDTH 6 0
BBX 7 10 0 0
BITMAP
2FD0
39E0
2FD0
B5A0
FF74
E574
EB74
F5B4
FFF4
7FE0
ENDCHAR
STARTCHAR uni0204
ENCODING 516
SWIDTH 578 0
DWIDTH 6 0
BBX 7 11 0 0
BITMAP
2A00
6A40
3AC0
2FC0
B5A0
F7F4
F5B4
F7F4
F9B4
FFF4
7FE0
ENDCHAR
STARTCHAR uni0205
ENCODING 517
SWIDTH 578 0
DWIDTH 6 0
BBX 7 11 0 0
BITMAP
2A00
6A40
3AC0
2FC0
A5A0
EA74
EAB4
EAF4
FAB4
FFF4
7FE0
ENDCHAR
STARTCHAR uni0206
ENCODING 518
SWIDTH 578 0
DWIDTH 6 0
BBX 7 10 0 0
BITMAP
2FD0
39E0
2FD0
B5A0
F7F4
F5B4
F7F4
F9B4
FFF4
7FE0
ENDCHAR
STARTCHAR uni0207
ENCODING 519
SWIDTH 578 0
DWIDTH 6 0
BBX 7 10 0 0
BITMAP
2FD0
39E0
2FD0
A5A0
EA74
EAB4
EAF4
FAB4
FFF4
7FE0
ENDCHAR
STARTCHAR uni0208
ENCODING 520
SWIDTH 578 0
DWIDTH 6 0
BBX 7 11 0 0
BITMAP
2A00
6A40
3AC0
2FC0
B560
FDF4
FDF4
FDF4
F574
FFF4
7FE0
ENDCHAR
STARTCHAR uni0209
ENCODING 521
SWIDTH 578 0
DWIDTH 6 0
BBX 7 11 0 0
BITMAP
2A00
6A40
3AC0
2FC0
B560
FDF4
FDF4
FDF4
F574
FFF4
7FE0
ENDCHAR
STARTCHAR uni020A
ENCODING 522
SWIDTH 578 0
DWIDTH 6 0
BBX 7 10 0 0
BITMAP
2FD0
39E0
2FD0
B560
FDF4
FDF4
FDF4
F574
FFF4
7FE0
ENDCHAR
STARTCHAR uni020B
ENCODING 523
SWIDTH 578 0
DWIDTH 6 0
BBX 7 10 0 0
BITMAP
2FD0
39E0
2FD0
B560
FDF4
FDF4
FDF4
F574
FFF4
7FE0
ENDCHAR
STARTCHAR uni020C
ENCODING 524
SWIDTH 578 0
DWIDTH 6 0
BBX 7 11 0 0
BITMAP
2A00
6A40
3AC0
2FC0
B560
EBB4
EBB4
EBB4
F5B4
FFF4
7FE0
ENDCHAR
STARTCHAR uni020D
ENCODING 525
SWIDTH 578 0
DWIDTH 6 0
BBX 7 11 0 0
BITMAP
2A00
6A40
3AC0
2FC0
B560
EBB4
EBB4
EBB4
F5B4
FFF4
7FE0
ENDCHAR
STARTCHAR uni020E
ENCODING 526
SWIDTH 578 0
DWIDTH 6 0
BBX 7 10 0 0
BITMAP
2FD0
39E0
2FD0
B560
EBB4
EBB4
EBB4
F5B4
FFF4
7FE0
ENDCHAR
STARTCHAR uni020F
ENCODING 527
SWIDTH 578 0
DWIDTH 6 0
BBX 7 10 0 0
BITMAP
2FD0
39E0
2FD0
B560
EBB4
EBB4
EBB4
F5B4
FFF4
7FE0
ENDCHAR
STARTCHAR uni0210
ENCODING 528
SWIDTH 578 0
DWIDTH 6 0
BBX 7 11 0 0
BITMAP
2A00
6A40
3AC0
2FC0
B5A0
FB74
F5B4
FB74
FBB4
FFF4
7FE0
ENDCHAR
STARTCHAR uni0211
ENCODING 529
SWIDTH 578 0
DWIDTH 6 0
BBX 7 11 0 0
BITMAP
2A00
6A40
3AC0
2FC0
B5A0
FB74
F5B4
FB74
FBB4
FFF4
7FE0
ENDCHAR
STARTCHAR uni0212
ENCODING 530
SWIDTH 578 0
DWIDTH 6 0
BBX 7 10 0 0
BITMAP
2FD0
39E0
2FD0
B5A0
FB74
F5B4
FB74
FBB4
FFF4
7FE0
ENDCHAR
STARTCHAR uni0213
ENCODING 531
SWIDTH 578 0
DWIDTH 6 0
BBX 7 10 0 0
BITMAP
2FD0
39E0
2FD0
B5A0
FB74
F5B4
FB74
FBB4
FFF4
7FE0
ENDCHAR
STARTCHAR uni0214
ENCODING 532
SWIDTH 578 0
DWIDTH 6 0
BBX 7 11 0 0
BITMAP
2A00
6A40
3AC0
2FC0
ABA0
EBB4
EBB4
EB74
F5B4
FFF4
7FE0
ENDCHAR
STARTCHAR uni0215
ENCODING 533
SWIDTH 578 0
DWIDTH 6 0
BBX 7 11 0 0
BITMAP
2A00
6A40
3AC0
2FC0
ABA0
EBB4
EBB4
EB74
F5B4
FFF4
7FE0
ENDCHAR
STARTCHAR uni0216
ENCODING 534
SWIDTH 578 0
DWIDTH 6 0
BBX 7 10 0 0
BITMAP
2FD0
39E0
2FD0
ABA0
EBB4
EBB4
EB74
F5B4
FFF4
7FE0
ENDCHAR
STARTCHAR uni0217
ENCODING 535
SWIDTH 578 0
DWIDTH 6 0
BBX 7 10 0 0
BITMAP
2FD0
39E0
2FD0
ABA0
EBB4
EBB4
EB74
F5B4
FFF4
7FE0
ENDCHAR
STARTCHAR uni0218
ENCODING 536
SWIDTH 578 0
DWIDTH 6 0
BBX 7 8 0 0
BITMAP
1540
B5A0
FBF4
F574
FF74
F9B4
FDF4
7FE0
ENDCHAR
STARTCHAR uni0219
ENCODING 537
SWIDTH 578 0
DWIDTH 6 0
BBX 7 8 0 0
BITMAP
1540
B5A0
FBF4
F574
FF74
F9B4
FDF4
7FE0
ENDCHAR
STARTCHAR uni021A
ENCODING 538
SWIDTH 578 0
DWIDTH 6 0
BBX 7 8 0 0
BITMAP
1540
B560
FDF4
FDF4
FDF4
FEF4
FDF4
7FE0
ENDCHAR
STARTCHAR uni021B
ENCODING 539
SWIDTH 578 0
DWIDTH 6 0
BBX 7 8 0 0
BITMAP
1540
B560
FDF4
FDF4
FDF4
FEF4
FDF4
7FE0
ENDCHAR
STARTCHAR circumflex
ENCODING 710
SWIDTH 355 0
DWIDTH 4 0
BBX 4 4 0 0
BITMAP
28
A9
EB
AA
ENDCHAR
STARTCHAR caron
ENCODING 711
SWIDTH 355 0
DWIDTH 4 0
BBX 4 4 0 0
BITMAP
59
EB
AA
69
ENDCHAR
STARTCHAR breve
ENCODING 728
SWIDTH 428 0
DWIDTH 5 0
BBX 5 4 0 0
BITMAP
0400
BF40
EA80
BB40
ENDCHAR
STARTCHAR dotaccent
ENCODING 729
SWIDTH 428 0
DWIDTH 5 0
BBX 5 4 0 0
BITMAP
0400
BF40
FB80
BF40
ENDCHAR
STARTCHAR ring
ENCODING 730
SWIDTH 368 0
DWIDTH 4 0
BBX 4 4 0 0
BITMAP
14
AA
E7
BB
ENDCHAR
STARTCHAR ogonek
ENCODING 731
SWIDTH 101 0
DWIDTH 1 0
BBX 1 2 0 -2
BITMAP
80
40
ENDCHAR
STARTCHAR tilde
ENCODING 732
SWIDTH 428 0
DWIDTH 5 0
BBX 5 4 0 0
BITMAP
1500
BF40
EA80
AB40
ENDCHAR
STARTCHAR hungarumlaut
ENCODING 733
SWIDTH 419 0
DWIDTH 5 0
BBX 5 4 0 0
BITMAP
2A00
7A40
EB40
A900
ENDCHAR
STARTCHAR uni030F
ENCODING 783
SWIDTH 419 0
DWIDTH 5 0
BBX 5 4 0 0
BITMAP
6900
EB00
AA40
2A40
ENDCHAR
STARTCHAR mu
ENCODING 956
SWIDTH 578 0
DWIDTH 6 0
BBX 7 8 0 0
BITMAP
1540
ABA0
EBB4
EBB4
EB74
E5B4
FFF4
7FE0
ENDCHAR
STARTCHAR pi
ENCODING 960
SWIDTH 578 0
DWIDTH 6 0
BBX 7 8 0 0
BITMAP
1540
BAA0
EAA4
A6A4
EBA4
EAB4
FFF4
7FE0
ENDCHAR
STARTCHAR uni1E60
ENCODING 7776
SWIDTH 578 0
DWIDTH 6 0
BBX 7 11 0 0
BITMAP
0100
1FD0
2EF0
2FE0
B5A0
FBF4
F574
FF74
F9B4
FFF4
7FE0
ENDCHAR
STARTCHAR uni1E8E
ENCODING 7822
SWIDTH 578 0
DWIDTH 6 0
BBX 7 11 0 0
BITMAP
0100
1FD0
3EE0
2FE0
B760
F6B4
F8F4
FDF4
FEF4
FFF4
7FE0
ENDCHAR
STARTCHAR uni1E8F
ENCODING 7823
SWIDTH 578 0
DWIDTH 6 0
BBX 7 11 0 0
BITMAP
0100
1FD0
3EE0
2FE0
B760
F6B4
F8F4
FDF4
FEF4
FFF4
7FE0
ENDCHAR
STARTCHAR uni1EBC
ENCODING 7868
SWIDTH 578 0
DWIDTH 6 0
BBX 7 11 0 0
BITMAP
0640
2FD0
3AA0
2FE0
B5A0
F7F4
F5B4
F7F4
F9B4
FFF4
7FE0
ENDCHAR
STARTCHAR uni1EF8
ENCODING 7928
SWIDTH 578 0
DWIDTH 6 0
BBX 7 11 0 0
BITMAP
0640
2FD0
3AA0
2FD0
B760
F6B4
F8F4
FDF4
FEF4
FFF4
7FE0
ENDCHAR
STARTCHAR uni1EF9
ENCODING 7929
SWIDTH 578 0
DWIDTH 6 0
BBX 7 11 0 0
BITMAP
0640
2FD0
3AA0
2FD0
B760
F6B4
F8F4
FDF4
FEF4
FFF4
7FE0
ENDCHAR
STARTCHAR endash
ENCODING 8211
SWIDTH 428 0
DWIDTH 5 0
BBX 5 8 0 0
BITMAP
1400
BF40
E680
FF80
FF80
FF80
FF80
7E00
ENDCHAR
STARTCHAR emdash
ENCODING 8212
SWIDTH 428 0
DWIDTH 5 0
BBX 5 8 0 0
BITMAP
1400
BF40
5540
FF80
FF80
FF80
FF80
7E00
ENDCHAR
STARTCHAR quoteleft
ENCODING 8216
SWIDTH 428 0
DWIDTH 5 0
BBX 5 8 0 0
BITMAP
1400
BB40
FB80
FF80
FF80
FF80
FF80
7E00
ENDCHAR
STARTCHAR quoteright
ENCODING 8217
SWIDTH 428 0
DWIDTH 5 0
BBX 5 8 0 0
BITMAP
1400
B740
FB80
FF80
FF80
FF80
FF80
7E00
ENDCHAR
STARTCHAR quotesinglbase
ENCODING 8218
SWIDTH 428 0
DWIDTH 5 0
BBX 5 8 0 0
BITMAP
1400
BF40
FF80
FF80
FF80
F780
FF80
7E00
ENDCHAR
STARTCHAR quotedblleft
ENCODING 8220
SWIDTH 428 0
DWIDTH 5 0
BBX 5 8 0 0
BITMAP
1400
AB40
EB80
FF80
FF80
FF80
FF80
7E00
ENDCHAR
STARTCHAR quotedblright
ENCODING 8221
SWIDTH 428 0
DWIDTH 5 0
BBX 5 8 0 0
BITMAP
1400
A640
FB80
FF80
FF80
FF80
FF80
7E00
ENDCHAR
STARTCHAR quotedblbase
ENCODING 8222
SWIDTH 428 0
DWIDTH 5 0
BBX 5 8 0 0
BITMAP
1400
BF40
FF80
FF80
FF80
E680
FF80
7E00
ENDCHAR
STARTCHAR dagger
ENCODING 8224
SWIDTH 578 0
DWIDTH 6 0
BBX 7 8 0 0
BITMAP
1540
BDE0
F9B4
FDF4
FDF4
FEF4
FFF4
7FE0
ENDCHAR
STARTCHAR daggerdbl
ENCODING 8225
SWIDTH 578 0
DWIDTH 6 0
BBX 7 8 0 0
BITMAP
1540
BDE0
F9B4
FDF4
F9B4
FEF4
FFF4
7FE0
ENDCHAR
STARTCHAR bullet
ENCODING 8226
SWIDTH 578 0
DWIDTH 6 0
BBX 7 8 0 0
BITMAP
1540
BAE0
E034
E034
E034
FAF4
FFF4
7FE0
ENDCHAR
STARTCHAR ellipsis
ENCODING 8230
SWIDTH 578 0
DWIDTH 6 0
BBX 7 8 0 0
BITMAP
1540
BFE0
FFF4
FFF4
FFF4
EAB4
FFF4
7FE0
ENDCHAR
STARTCHAR perthousand
ENCODING 8240
SWIDTH 640 0
DWIDTH 7 0
BBX 7 8 0 0
BITMAP
1550
5AF8
57FC
F6A8
F554
FEE8
FFFC
7FF4
ENDCHAR
STARTCHAR guilsinglleft
ENCODING 8249
SWIDTH 578 0
DWIDTH 6 0
BBX 7 8 0 0
BITMAP
1540
BFE0
FDF4
FBF4
FEF4
FEF4
FFF4
7FE0
ENDCHAR
STARTCHAR guilsinglright
ENCODING 8250
SWIDTH 578 0
DWIDTH 6 0
BBX 7 8 0 0
BITMAP
1540
BFE0
FEF4
FEF4
FDF4
FBF4
FFF4
7FE0
ENDCHAR
STARTCHAR fraction
ENCODING 8260
SWIDTH 428 0
DWIDTH 5 0
BBX 5 8 0 0
BITMAP
1400
B740
F780
F780
FB80
FB80
FF80
7E00
ENDCHAR
STARTCHAR Euro
ENCODING 8364
SWIDTH 578 0
DWIDTH 6 0
BBX 7 8 0 0
BITMAP
1540
B5A0
D6F4
D6F4
EBF4
F5B4
FFF4
7FE0
ENDCHAR
STARTCHAR trademark
ENCODING 8482
SWIDTH 578 0
DWIDTH 6 0
BBX 7 8 0 0
BITMAP
1540
BFE0
FFF4
E574
FAB4
FFF4
FFF4
7FE0
ENDCHAR
STARTCHAR product
ENCODING 8719
SWIDTH 578 0
DWIDTH 6 0
BBX 7 8 0 0
BITMAP
1540
BAA0
EAA4
AAA4
EBE4
EAB4
FFF4
7FE0
ENDCHAR
STARTCHAR minus
ENCODING 8722
SWIDTH 428 0
DWIDTH 5 0
BBX 5 8 0 0
BITMAP
1400
BF40
E680
FF80
FF80
FF80
FF80
7E00
ENDCHAR
STARTCHAR notequal
ENCODING 8800
SWIDTH 578 0
DWIDTH 6 0
BBX 7 8 0 0
BITMAP
1540
BEE0
E5B4
E5B4
FBF4
FFF4
FFF4
7FE0
ENDCHAR
STARTCHAR uni2706
ENCODING 9990
SWIDTH 578 0
DWIDTH 6 0
BBX 7 8 0 0
BITMAP
1540
BEE0
F9B4
F7F4
F7F4
FDB4
FFF4
7FE0
ENDCHAR
STARTCHAR uni2708
ENCODING 9992
SWIDTH 578 0
DWIDTH 6 0
BBX 7 8 0 0
BITMAP
0540
4510
5144
4B44
4104
4104
4204
5550
ENDCHAR
STARTCHAR uniF6D6
ENCODING 63190
SWIDTH 419 0
DWIDTH 5 0
BBX 5 4 0 0
BITMAP
6900
EB00
AA40
2A40
ENDCHAR
STARTCHAR uFFFF2
ENCODING 1048562
SWIDTH 578 0
DWIDTH 6 0
BBX 7 8 0 0
BITMAP
0540
4110
4204
4A44
4104
4504
4204
5550
ENDCHAR
STARTCHAR uFFFF3
ENCODING 1048563
SWIDTH 578 0
DWIDTH 6 0
BBX 7 8 0 0
BITMAP
0540
4110
4644
4704
4A44
4204
4004
5550
ENDCHAR
STARTCHAR uFFFF4
ENCODING 1048564
SWIDTH 578 0
DWIDTH 6 0
BBX 7 8 0 0
BITMAP
1540
BFE0
FAB4
EEB4
FBB4
FEF4
FFF4
7FE0
ENDCHAR
STARTCHAR uFFFF5
ENCODING 1048565
SWIDTH 578 0
DWIDTH 6 0
BBX 7 8 0 0
BITMAP
1540
BAE0
EEB4
F4B4
FEF4
FEF4
FDF4
7EE0
ENDCHAR
STARTCHAR uFFFF6
ENCODING 1048566
SWIDTH 578 0
DWIDTH 6 0
BBX 7 8 0 0
BITMAP
1540
BEE0
FDF4
F5B4
FEF4
FAF4
FDF4
7EE0
ENDCHAR
STARTCHAR uFFFF8
ENCODING 1048568
SWIDTH 578 0
DWIDTH 6 0
BBX 7 8 0 0
BITMAP
1540
BEE0
F5F4
F5B4
E074
F4B4
FEF4
7EE0
ENDCHAR
STARTCHAR uFFFF9
ENCODING 1048569
SWIDTH 578 0
DWIDTH 6 0
BBX 7 8 0 0
BITMAP
0540
4010
4544
5144
4444
4104
4004
5550
ENDCHAR
STARTCHAR uFFFFB
ENCODING 1048571
SWIDTH 578 0
DWIDTH 6 0
BBX 7 8 0 0
BITMAP
1540
BDE0
F5B4
F9F4
F9B4
FDF4
FFF4
7FE0
ENDCHAR
STARTCHAR uFFFFC
ENCODING 1048572
SWIDTH 578 0
DWIDTH 6 0
BBX 7 8 0 0
BITMAP
1540
B9A0
D664
FAB4
FDF4
FFF4
FFF4
7FE0
ENDCHAR
STARTCHAR uFFFFD
ENCODING 1048573
SWIDTH 578 0
DWIDTH 6 0
BBX 7 8 0 0
BITMAP
1540
BAE0
E074
E9B4
F5B4
F9F4
FEF4
7EE0
ENDCHAR
STARTCHAR uFFFFE
ENCODING 1048574
SWIDTH 578 0
DWIDTH 6 0
BBX 7 8 0 0
BITMAP
1540
AAA0
E9E4
D5E4
D6A4
FFF4
FFF4
7FE0
ENDCHAR
STARTCHAR uFFFFF
ENCODING 1048575
SWIDTH 578 0
DWIDTH 6 0
BBX 7 8 0 0
BITMAP
0540
4510
5F84
5644
4A44
4604
4104
5550
ENDCHAR
STARTCHAR .notdef
ENCODING -1
SWIDTH 1000 0
DWIDTH 11 0
BBX 1 1 0 0
BITMAP
00
ENDCHAR
STARTCHAR glyph1
ENCODING -1
SWIDTH 0 0
DWIDTH 0 0
BBX 1 1 0 0
BITMAP
00
ENDCHAR
ENDFONT
